ply
format ascii 1.0
comment this is a surface
element vertex 800
property float x
property float y
property float z
element face 1440
property list uchar int vertex_index
end_header
71.312528 66.542045 112.32
71.075391 66.73138 112.32
70.823259 66.924825 112.32
70.555702 67.122186 112.32
70.27229 67.323271 112.32
69.972595 67.527884 112.32
69.656186 67.735834 112.32
69.322634 67.946927 112.32
68.97151 68.160969 112.32
68.97151 68.160969 112.32
68.898915 67.937557 112.32
68.83557 67.717999 112.32
68.780844 67.50234 112.32
68.734106 67.290627 112.32
68.694727 67.082908 112.32
68.662076 66.879229 112.32
68.635523 66.679638 112.32
68.614437 66.484181 112.32
68.598189 66.292905 112.32
68.586147 66.105857 112.32
68.577682 65.923085 112.32
68.572164 65.744634 112.32
68.568961 65.570553 112.32
68.567445 65.400888 112.32
68.566984 65.235686 112.32
68.569221 65.073928 112.32
68.603118 64.902662 112.32
68.673701 64.722008 112.32
68.775887 64.537046 112.32
68.904593 64.352855 112.32
69.054736 64.174516 112.32
69.221231 64.00711 112.32
69.398997 63.855715 112.32
69.58295 63.725412 112.32
69.768007 63.621281 112.32
69.949085 63.548402 112.32
70.1211 63.511856 112.32
70.287495 63.508856 112.32
70.477695 63.510684 112.32
70.690837 63.514098 112.32
70.922481 63.51903 112.32
71.168194 63.525413 112.32
71.423536 63.533182 112.32
71.684073 63.542269 112.32
71.945367 63.552608 112.32
72.202981 63.564132 112.32
72.45248 63.576775 112.32
72.689427 63.590469 112.32
72.909384 63.605149 112.32
73.107915 63.620748 112.32
73.280584 63.637199 112.32
73.422955 63.654435 112.32
73.530589 63.67239 112.32
73.599052 63.690998 112.32
73.623906 63.710191 112.32
73.62207 63.733915 112.32
73.615953 63.766581 112.32
73.605151 63.807999 112.32
73.589233 63.857976 112.32
73.56777 63.916319 112.32
73.540333 63.982833 112.32
73.506491 64.057327 112.32
73.465815 64.139606 112.32
73.417876 64.229476 112.32
73.362245 64.326745 112.32
73.29849 64.431219 112.32
73.226184 64.542705 112.32
73.144897 64.661008 112.32
73.054198 64.785936 112.32
72.953658 64.917296 112.32
72.842849 65.054893 112.32
72.72134 65.198534 112.32
72.588701 65.348026 112.32
72.444504 65.503176 112.32
72.288318 65.663789 112.32
72.119714 65.829673 112.32
71.938263 66.000634 112.32
71.743534 66.176479 112.32
71.535099 66.357014 112.32
71.312528 66.542045 112.32
69.129067 68.985967 103.68
68.82688 69.443811 103.68
68.538113 69.914979 103.68
68.263317 70.398372 103.68
68.00304 70.89289 103.68
67.757835 71.397436 103.68
67.757835 71.397436 103.68
67.633361 72.196166 103.68
67.489536 72.862659 103.68
67.326561 73.304942 103.68
67.144218 73.433373 103.68
66.923744 73.304782 103.68
66.663132 73.006516 103.68
66.373804 72.572937 103.68
66.067179 72.038407 103.68
65.75468 71.437289 103.68
65.447726 70.803945 103.68
65.157737 70.172738 103.68
64.896135 69.578031 103.68
64.67277 69.05096 103.68
64.461691 68.541978 103.68
64.256678 68.024187 103.68
64.066763 67.499375 103.68
63.900978 66.969329 103.68
63.768352 66.435835 103.68
63.673275 65.899308 103.68
63.587568 65.352176 103.68
63.507567 64.796942 103.68
63.43661 64.238425 103.68
63.378041 63.68144 103.68
63.3352 63.130807 103.68
63.311429 62.591341 103.68
63.319274 62.059989 103.68
63.424473 61.491552 103.68
63.620214 60.908715 103.68
63.883128 60.348833 103.68
64.189844 59.849265 103.68
64.51699 59.447365 103.68
64.851115 59.169581 103.68
65.273694 58.92772 103.68
65.78352 58.704184 103.68
66.349683 58.511871 103.68
66.941269 58.363682 103.68
67.527368 58.272515 103.68
68.078977 58.250148 103.68
68.623933 58.274323 103.68
69.177808 58.328222 103.68
69.735105 58.40713 103.68
70.290324 58.506326 103.68
70.837965 58.621094 103.68
71.372531 58.746717 103.68
71.888945 58.879474 103.68
72.400186 59.058087 103.68
72.908311 59.294895 103.68
73.404613 59.57671 103.68
73.880385 59.890345 103.68
74.326919 60.222614 103.68
74.740048 60.563675 103.68
75.18879 60.964503 103.68
75.639192 61.417077 103.68
76.01211 61.882489 103.68
76.228403 62.321837 103.68
76.218942 62.705735 103.68
76.002751 63.059296 103.68
75.627175 63.393865 103.68
75.137367 63.71636 103.68
74.578479 64.033697 103.68
73.995662 64.352792 103.68
73.434069 64.680563 103.68
72.938851 65.023926 103.68
72.520022 65.38447 103.68
72.104594 65.751304 103.68
71.690934 66.124462 103.68
71.2826 66.504764 103.68
70.883147 66.893033 103.68
70.496133 67.290089 103.68
70.125114 67.696756 103.68
69.773645 68.113853 103.68
69.444124 68.542545 103.68
69.129067 68.985967 103.68
67.244895 71.134525 95.04
66.812247 71.745844 95.04
66.812247 71.745844 95.04
66.344459 72.783531 95.04
65.857262 73.594084 95.04
65.352416 74.190697 95.04
64.831681 74.586567 95.04
64.296818 74.794886 95.04
63.74449 74.816081 95.04
63.121746 74.507753 95.04
62.487422 73.96582 95.04
61.935879 73.369834 95.04
61.51293 72.809908 95.04
61.145732 72.181622 95.04
60.816315 71.5032 95.04
60.509997 70.799331 95.04
60.212098 70.094701 95.04
59.904551 69.411597 95.04
59.547815 68.735309 95.04
59.174213 68.055761 95.04
58.834592 67.370548 95.04
58.579796 66.677265 95.04
58.460669 65.973507 95.04
58.463511 65.250038 95.04
58.486235 64.49941 95.04
58.524873 63.733489 95.04
58.578274 62.964548 95.04
58.645286 62.204861 95.04
58.724759 61.4667 95.04
58.815542 60.762338 95.04
58.944289 60.086858 95.04
59.221352 59.385354 95.04
59.625823 58.686458 95.04
60.120141 58.029228 95.04
60.666743 57.452724 95.04
61.228066 56.996004 95.04
61.788181 56.672699 95.04
62.429589 56.377036 95.04
63.141734 56.107164 95.04
63.897197 55.880696 95.04
64.668562 55.715248 95.04
65.428412 55.628435 95.04
66.16072 55.631603 95.04
66.897217 55.698359 95.04
67.638151 55.804442 95.04
68.378612 55.927633 95.04
69.114486 56.046154 95.04
69.865898 56.15983 95.04
70.63177 56.279277 95.04
71.396159 56.410608 95.04
72.143122 56.559937 95.04
72.856716 56.733379 95.04
73.520998 56.937046 95.04
74.148419 57.196268 95.04
74.828877 57.584435 95.04
75.521736 58.080894 95.04
76.171102 58.654372 95.04
76.721082 59.273593 95.04
77.115783 59.907286 95.04
77.29931 60.524176 95.04
77.222991 61.138956 95.04
76.921611 61.811206 95.04
76.480092 62.495124 95.04
75.983908 63.141229 95.04
75.510374 63.702539 95.04
74.986495 64.192683 95.04
74.395447 64.641985 95.04
73.768297 65.070633 95.04
73.136113 65.498813 95.04
72.529964 65.946712 95.04
71.954433 66.41761 95.04
71.377433 66.891067 95.04
70.803524 67.369798 95.04
70.23822 67.857127 95.04
69.687036 68.356375 95.04
69.155483 68.870865 95.04
68.648504 69.404147 95.04
68.162401 69.960569 95.04
67.694739 70.538398 95.04
67.244895 71.134525 95.04
63.582214 74.027066 86.4
63.212581 75.060012 86.4
62.866406 76.099013 86.4
62.552081 77.144324 86.4
62.277996 78.1962 86.4
62.052776 79.256183 86.4
61.892119 80.397365 86.4
61.778497 81.610019 86.4
61.679505 82.821372 86.4
61.562736 83.95865 86.4
61.395784 84.949079 86.4
61.145618 85.72009 86.4
60.243384 86.381817 86.4
59.193303 86.716021 86.4
58.561899 86.425124 86.4
57.974665 85.656553 86.4
57.452034 84.557461 86.4
57.014438 83.275001 86.4
56.682312 81.956325 86.4
56.476089 80.748586 86.4
56.378875 79.692307 86.4
56.31083 78.619105 86.4
56.259915 77.528254 86.4
56.217119 76.427183 86.4
56.17343 75.323321 86.4
56.119835 74.224098 86.4
56.045428 73.135318 86.4
55.938393 72.049911 86.4
55.815838 70.965247 86.4
55.699004 69.88057 86.4
55.609132 68.795127 86.4
55.566337 67.707599 86.4
55.545191 66.601156 86.4
55.527457 65.482683 86.4
55.513812 64.371887 86.4
55.504927 63.288474 86.4
55.501478 62.252152 86.4
55.627241 61.229814 86.4
56.011978 60.182902 86.4
56.593315 59.153471 86.4
57.307809 58.184029 86.4
58.092017 57.317086 86.4
58.882496 56.59515 86.4
59.666727 56.015662 86.4
60.588559 55.448491 86.4
61.618317 54.930624 86.4
62.705961 54.517705 86.4
63.801454 54.265374 86.4
64.862723 54.218296 86.4
65.944643 54.277679 86.4
67.050144 54.395862 86.4
68.155392 54.559735 86.4
69.236555 54.756187 86.4
70.270652 54.972476 86.4
71.396518 55.274037 86.4
72.635695 55.702442 86.4
73.854721 56.237724 86.4
74.920136 56.859919 86.4
75.698477 57.549061 86.4
76.056284 58.285184 86.4
75.991906 59.19641 86.4
75.747541 60.364344 86.4
75.412888 61.441146 86.4
74.918223 62.252595 86.4
74.134533 62.961749 86.4
73.183933 63.616853 86.4
72.191266 64.26393 86.4
71.281371 64.948999 86.4
70.465191 65.674945 86.4
69.641541 66.403683 86.4
68.822624 67.141022 86.4
68.021512 67.893104 86.4
67.251279 68.66607 86.4
66.524997 69.466063 86.4
65.854878 70.299526 86.4
65.230007 71.176566 86.4
64.642908 72.094712 86.4
64.093628 73.04715 86.4
63.582214 74.027066 86.4
63.582214 74.027066 86.4
63.09411 71.58867 77.76
62.630486 72.542049 77.76
62.211264 73.512481 77.76
61.8271 74.502822 77.76
61.46984 75.506478 77.76
61.132179 76.51586 77.76
60.821198 77.629118 77.76
60.552053 78.966875 77.76
60.285885 80.215528 77.76
59.981145 81.040704 77.76
59.591505 81.120904 77.76
59.068421 80.457183 77.76
58.458347 79.374082 77.76
57.823287 78.208738 77.76
57.212367 77.261054 77.76
56.569271 76.404312 77.76
55.929238 75.54825 77.76
55.356615 74.664458 77.76
54.851717 73.737281 77.76
54.335538 72.781932 77.76
53.841571 71.80364 77.76
53.406747 70.807114 77.76
53.067997 69.797067 77.76
52.862251 68.778209 77.76
52.781368 67.74794 77.76
52.717785 66.693099 77.76
52.666165 65.622829 77.76
52.6284 64.54761 77.76
52.606384 63.477923 77.76
52.605605 62.421636 77.76
52.693651 61.342349 77.76
52.878862 60.248741 77.76
53.139228 59.171821 77.76
53.452737 58.142597 77.76
53.797382 57.192077 77.76
54.195337 56.318879 77.76
54.767763 55.443394 77.76
55.487818 54.587969 77.76
56.315683 53.784214 77.76
57.211536 53.063743 77.76
58.135557 52.458165 77.76
59.047926 51.999092 77.76
59.975454 51.641319 77.76
60.980742 51.302322 77.76
62.037148 51.005001 77.76
63.117341 50.773068 77.76
64.193988 50.630231 77.76
65.242679 50.599995 77.76
66.299432 50.689261 77.76
67.368582 50.876859 77.76
68.4307 51.138959 77.76
69.466357 51.451729 77.76
70.456121 51.791339 77.76
71.417516 52.163004 77.76
72.443428 52.656601 77.76
73.458553 53.261385 77.76
74.371402 53.95533 77.76
75.090487 54.716409 77.76
75.527373 55.526506 77.76
75.808898 56.568024 77.76
75.948987 57.644619 77.76
75.658713 58.522594 77.76
74.88074 59.325779 77.76
73.96722 60.084914 77.76
73.185831 60.819812 77.76
72.383811 61.513597 77.76
71.548018 62.177828 77.76
70.696729 62.828203 77.76
69.848218 63.480416 77.76
69.020761 64.150164 77.76
68.232635 64.853144 77.76
67.493505 65.599834 77.76
66.778817 66.377 77.76
66.085533 67.180659 77.76
65.413894 68.008635 77.76
64.764146 68.858749 77.76
64.13653 69.728826 77.76
64.13653 69.728826 77.76
63.59816 70.650969 77.76
63.09411 71.58867 77.76
61.249228 87.317373 69.12
60.231336 88.643116 69.12
59.190052 89.523749 69.12
58.098611 89.656241 69.12
56.831652 89.286899 69.12
55.470224 88.595053 69.12
54.142658 87.677406 69.12
52.977287 86.630662 69.12
52.102441 85.551524 69.12
51.602149 84.500086 69.12
51.207492 83.269032 69.12
50.872575 81.878707 69.12
50.626528 80.415388 69.12
50.498483 78.965352 69.12
50.48725 77.584751 69.12
50.489714 76.205238 69.12
50.49418 74.820175 69.12
50.500439 73.43298 69.12
50.508279 72.047074 69.12
50.522407 70.664327 69.12
50.561058 69.280866 69.12
50.622346 67.897258 69.12
50.702118 66.514694 69.12
50.79622 65.134364 69.12
50.900499 63.75746 69.12
51.018583 62.380036 69.12
51.177813 60.990533 69.12
51.38092 59.603507 69.12
51.627828 58.235805 69.12
51.918463 56.904277 69.12
52.280533 55.586807 69.12
52.79273 54.209394 69.12
53.434509 52.859374 69.12
54.177541 51.635807 69.12
54.9935 50.637753 69.12
55.907918 49.873764 69.12
57.043805 49.135862 69.12
58.344125 48.460346 69.12
59.73843 47.904051 69.12
61.156273 47.523808 69.12
62.527207 47.376449 69.12
63.905897 47.436146 69.12
65.361756 47.611264 69.12
66.813679 47.878038 69.12
68.180326 48.212833 69.12
69.380358 48.592012 69.12
70.458764 49.113108 69.12
71.584131 49.958068 69.12
72.683865 51.049737 69.12
73.678746 52.30425 69.12
74.489558 53.637738 69.12
75.037082 54.966337 69.12
75.242101 56.206178 69.12
75.031594 57.420525 69.12
74.47017 58.697007 69.12
73.688015 59.973002 69.12
72.815326 61.185838 69.12
71.975564 62.273652 69.12
71.037974 63.229542 69.12
69.960143 64.104541 69.12
68.819321 64.946876 69.12
67.692756 65.804774 69.12
66.657696 66.726463 69.12
65.667235 67.725608 69.12
64.614311 68.765405 69.12
63.625034 69.848872 69.12
62.829479 70.979916 69.12
62.357721 72.162443 69.12
62.145307 73.418876 69.12
61.977678 74.758592 69.12
61.844595 76.154653 69.12
61.736955 77.579971 69.12
61.645659 79.007457 69.12
61.561606 80.410024 69.12
61.480537 81.789664 69.12
61.406339 83.170234 69.12
61.341441 84.551733 69.12
61.288263 85.934125 69.12
61.249228 87.317373 69.12
61.249228 87.317373 69.12
59.36829 88.922893 60.48
59.262108 90.411681 60.48
59.262108 90.411681 60.48
57.661559 90.071143 60.48
56.166376 89.573463 60.48
54.822971 88.953086 60.48
53.677755 88.244458 60.48
52.635395 87.374022 60.48
51.577537 86.25256 60.48
50.591497 84.94873 60.48
49.765644 83.531995 60.48
49.188347 82.071816 60.48
48.947974 80.637658 60.48
48.945869 79.200596 60.48
48.945869 77.688339 60.48
48.945869 76.170768 60.48
48.98005 74.680184 60.48
49.073943 73.190877 60.48
49.193709 71.701926 60.48
49.305204 70.21263 60.48
49.379097 68.722188 60.48
49.431039 67.229825 60.48
49.473701 65.736479 60.48
49.51483 64.243327 60.48
49.562174 62.751549 60.48
49.623482 61.262321 60.48
49.708758 59.775713 60.48
49.843 58.284678 60.48
50.026196 56.794942 60.48
50.251982 55.315402 60.48
50.513993 53.854954 60.48
50.839696 52.398224 60.48
51.281181 50.935422 60.48
51.822184 49.524369 60.48
52.445465 48.22229 60.48
53.222321 46.850644 60.48
54.17809 45.444532 60.48
55.267451 44.262433 60.48
56.445083 43.562822 60.48
57.741429 43.407354 60.48
59.268208 43.324111 60.48
60.831396 43.283175 60.48
62.291204 43.381787 60.48
63.737986 43.814583 60.48
65.146593 44.45606 60.48
66.480171 45.161235 60.48
67.751925 45.885501 60.48
69.016512 46.756941 60.48
70.212573 47.747808 60.48
71.275031 48.824126 60.48
72.145025 49.95539 60.48
72.979508 51.237158 60.48
73.689604 52.643917 60.48
74.025163 54.062949 60.48
73.815541 55.468204 60.48
73.229675 56.89467 60.48
72.521309 58.265023 60.48
71.803093 59.531224 60.48
70.938954 60.732207 60.48
69.980871 61.894038 60.48
68.987655 63.041691 60.48
68.018118 64.200139 60.48
67.088396 65.377557 60.48
66.108684 66.538526 60.48
65.128768 67.700353 60.48
64.211654 68.885462 60.48
63.420351 70.116275 60.48
62.781856 71.413074 60.48
62.189241 72.773258 60.48
61.642713 74.181384 60.48
61.157609 75.621958 60.48
60.749261 77.079486 60.48
60.433004 78.538473 60.48
60.207758 79.996422 60.48
60.029711 81.475241 60.48
59.881312 82.966684 60.48
59.747007 84.460685 60.48
59.613014 85.948462 60.48
59.485514 87.435125 60.48
59.36829 88.922893 60.48
60.273504 90.816239 51.84
58.563478 91.326486 51.84
56.946924 91.564655 51.84
55.466231 91.634446 51.84
54.142668 91.590704 51.84
52.812218 91.046265 51.84
51.496963 90.018297 51.84
50.279609 88.661477 51.84
49.242864 87.130484 51.84
48.469433 85.579995 51.84
48.036232 84.15804 51.84
47.761056 82.710926 51.84
47.529491 81.15067 51.84
47.350426 79.528755 51.84
47.232753 77.896663 51.84
47.184204 76.304458 51.84
47.163652 74.733265 51.84
47.147148 73.159276 51.84
47.135036 71.583953 51.84
47.127661 70.008755 51.84
47.125453 68.435133 51.84
47.148704 66.86165 51.84
47.20786 65.287373 51.84
47.295734 63.713553 51.84
47.405139 62.141438 51.84
47.528889 60.572278 51.84
47.659795 59.007322 51.84
47.808517 57.420964 51.84
47.997035 55.809356 51.84
48.232959 54.21103 51.84
48.523888 52.664537 51.84
48.877423 51.208426 51.84
49.401031 49.77944 51.84
50.233361 48.291423 51.84
51.283746 46.899013 51.84
52.456572 45.761971 51.84
53.656662 45.039337 51.84
54.971702 44.568554 51.84
56.473774 44.145899 51.84
58.092433 43.788755 51.84
59.757235 43.514505 51.84
61.397735 43.34053 51.84
62.944071 43.284761 51.84
64.490596 43.502818 51.84
66.077302 44.040017 51.84
67.605993 44.798693 51.84
68.978476 45.681178 51.84
70.096571 46.589827 51.84
71.088089 47.661404 51.84
72.062694 49.012368 51.84
72.906664 50.526742 51.84
73.506276 52.088547 51.84
73.747808 53.581805 51.84
73.574437 55.017144 51.84
73.07447 56.486585 51.84
72.343771 57.958836 51.84
71.478127 59.402264 51.84
70.573322 60.785237 51.84
69.706266 62.075055 51.84
68.675041 63.24823 51.84
67.496801 64.350647 51.84
66.298748 65.441814 51.84
65.208089 66.581236 51.84
64.341923 67.826985 51.84
63.571942 69.183168 51.84
62.849982 70.617434 51.84
62.217292 72.10309 51.84
61.715121 73.613441 51.84
61.381798 75.122826 51.84
61.132798 76.649888 51.84
60.914417 78.204943 51.84
60.729276 79.778846 51.84
60.58 81.36245 51.84
60.46921 82.946611 51.84
60.399443 84.522225 51.84
60.351129 86.092859 51.84
60.311019 87.665549 51.84
60.283637 89.240081 51.84
60.273504 90.816239 51.84
60.273504 90.816239 51.84
59.927963 93.291302 43.2
58.267522 93.271719 43.2
56.684768 93.218145 43.2
55.216403 93.138339 43.2
53.831446 92.929116 43.2
52.380416 92.291531 43.2
50.947916 91.308672 43.2
49.635976 90.092137 43.2
48.546627 88.753525 43.2
47.7819 87.404433 43.2
47.398385 86.117645 43.2
47.116597 84.689796 43.2
46.880677 83.127586 43.2
46.703912 81.498437 43.2
46.599591 79.86977 43.2
46.583105 78.303519 43.2
46.685104 76.760055 43.2
46.875881 75.21605 43.2
47.108836 73.673916 43.2
47.33747 72.136063 43.2
47.573813 70.603577 43.2
47.842211 69.074892 43.2
48.127509 67.548291 43.2
48.414552 66.022063 43.2
48.688828 64.493931 43.2
48.950055 62.961812 43.2
49.211777 61.429526 43.2
49.488098 59.901489 43.2
49.793124 58.382116 43.2
50.137043 56.866435 43.2
50.519263 55.33063 43.2
50.970158 53.835803 43.2
51.526982 52.440988 43.2
52.259085 50.956106 43.2
53.158732 49.436065 43.2
54.190055 48.064694 43.2
55.317186 47.025825 43.2
56.504854 46.502041 43.2
57.875814 46.276715 43.2
59.453919 46.095864 43.2
61.110333 45.970821 43.2
62.716222 45.912916 43.2
64.228302 46.034063 43.2
65.755654 46.51984 43.2
67.225821 47.241847 43.2
68.556605 48.057931 43.2
69.761173 48.917068 43.2
71.039292 50.013598 43.2
72.241624 51.285617 43.2
73.189817 52.646465 43.2
73.705517 54.00948 43.2
73.674736 55.334122 43.2
73.275967 56.726833 43.2
72.612186 58.163994 43.2
71.769791 59.606821 43.2
70.835176 61.016529 43.2
69.894739 62.354334 43.2
68.988001 63.581367 43.2
67.894954 64.692812 43.2
66.677293 65.741404 43.2
65.458765 66.784515 43.2
64.363123 67.879516 43.2
63.508953 69.083404 43.2
62.739291 70.413692 43.2
61.989506 71.837395 43.2
61.344421 73.322105 43.2
60.888858 74.835417 43.2
60.707643 76.344925 43.2
60.738071 77.85638 43.2
60.820803 79.396774 43.2
60.93162 80.95602 43.2
61.046576 82.523962 43.2
61.141726 84.090441 43.2
61.193124 85.645299 43.2
61.157777 87.183859 43.2
60.983428 88.716959 43.2
60.698465 90.245727 43.2
60.335704 91.770421 43.2
59.927963 93.291302 43.2
59.927963 93.291302 43.2
60.009218 93.318762 34.56
58.101594 93.242419 34.56
56.307908 93.033166 34.56
54.646179 92.720661 34.56
53.134429 92.334566 34.56
51.737181 91.736154 34.56
50.3792 90.637128 34.56
49.140847 89.216314 34.56
48.108794 87.671929 34.56
47.358854 86.18795 34.56
46.741861 84.636148 34.56
46.203734 82.970926 34.56
45.7715 81.247083 34.56
45.472187 79.519415 34.56
45.303522 77.822393 34.56
45.164211 76.109007 34.56
45.048759 74.382387 34.56
44.963964 72.653399 34.56
44.916626 70.932908 34.56
44.934212 69.230795 34.56
45.160397 67.544388 34.56
45.555273 65.867389 34.56
46.037759 64.194358 34.56
46.526773 62.519853 34.56
46.941232 60.838433 34.56
47.203275 59.143658 34.56
47.355416 57.410193 34.56
47.466016 55.653671 34.56
47.571623 53.907354 34.56
47.708786 52.204505 34.56
47.914445 50.577588 34.56
48.357769 48.793005 34.56
49.102423 46.844456 34.56
50.06919 45.019587 34.56
51.178852 43.60604 34.56
52.352193 42.891461 34.56
53.632607 42.859278 34.56
55.23229 42.87571 34.56
57.045113 42.905244 34.56
58.948872 42.947713 34.56
60.821361 43.002952 34.56
62.540375 43.070794 34.56
64.09263 43.385344 34.56
65.591848 44.176937 34.56
67.044495 45.262118 34.56
68.455877 46.454154 34.56
69.83156 47.566491 34.56
71.339415 48.590976 34.56
72.974083 49.64451 34.56
74.521811 50.756449 34.56
75.768843 51.956148 34.56
76.501424 53.272962 34.56
76.695362 54.861542 34.56
76.754902 56.594436 34.56
76.19734 58.048598 34.56
75.002214 59.396211 34.56
73.59534 60.680625 34.56
72.360714 61.938782 34.56
71.135493 63.138883 34.56
69.855034 64.294602 34.56
68.559868 65.439055 34.56
67.290526 66.60536 34.56
66.080846 67.82505 34.56
64.751644 69.068352 34.56
63.345742 70.32751 34.56
62.052292 71.624241 34.56
61.060441 72.980261 34.56
60.55934 74.417286 34.56
60.379388 75.972188 34.56
60.226827 77.642184 34.56
60.103853 79.38956 34.56
60.012665 81.176603 34.56
59.955458 82.965599 34.56
59.934432 84.718836 34.56
59.934888 86.437749 34.56
59.938914 88.15715 34.56
59.950164 89.877136 34.56
59.972359 91.597681 34.56
60.009218 93.318762 34.56
60.009218 93.318762 34.56
3 0 80 81
3 0 81 1
3 1 81 82
3 1 82 2
3 2 82 83
3 2 83 3
3 3 83 84
3 3 84 4
3 4 84 85
3 4 85 5
3 5 85 86
3 5 86 6
3 6 86 87
3 6 87 7
3 7 87 88
3 7 88 8
3 8 88 89
3 8 89 9
3 9 89 90
3 9 90 10
3 10 90 91
3 10 91 11
3 11 91 92
3 11 92 12
3 12 92 93
3 12 93 13
3 13 93 94
3 13 94 14
3 14 94 95
3 14 95 15
3 15 95 96
3 15 96 16
3 16 96 97
3 16 97 17
3 17 97 98
3 17 98 18
3 18 98 99
3 18 99 19
3 19 99 100
3 19 100 20
3 20 100 101
3 20 101 21
3 21 101 102
3 21 102 22
3 22 102 103
3 22 103 23
3 23 103 104
3 23 104 24
3 24 104 105
3 24 105 25
3 25 105 106
3 25 106 26
3 26 106 107
3 26 107 27
3 27 107 108
3 27 108 28
3 28 108 109
3 28 109 29
3 29 109 110
3 29 110 30
3 30 110 111
3 30 111 31
3 31 111 112
3 31 112 32
3 32 112 113
3 32 113 33
3 33 113 114
3 33 114 34
3 34 114 115
3 34 115 35
3 35 115 116
3 35 116 36
3 36 116 117
3 36 117 37
3 37 117 118
3 37 118 38
3 38 118 119
3 38 119 39
3 39 119 120
3 39 120 40
3 40 120 121
3 40 121 41
3 41 121 122
3 41 122 42
3 42 122 123
3 42 123 43
3 43 123 124
3 43 124 44
3 44 124 125
3 44 125 45
3 45 125 126
3 45 126 46
3 46 126 127
3 46 127 47
3 47 127 128
3 47 128 48
3 48 128 129
3 48 129 49
3 49 129 130
3 49 130 50
3 50 130 131
3 50 131 51
3 51 131 132
3 51 132 52
3 52 132 133
3 52 133 53
3 53 133 134
3 53 134 54
3 54 134 135
3 54 135 55
3 55 135 136
3 55 136 56
3 56 136 137
3 56 137 57
3 57 137 138
3 57 138 58
3 58 138 139
3 58 139 59
3 59 139 140
3 59 140 60
3 60 140 141
3 60 141 61
3 61 141 142
3 61 142 62
3 62 142 143
3 62 143 63
3 63 143 144
3 63 144 64
3 64 144 145
3 64 145 65
3 65 145 146
3 65 146 66
3 66 146 147
3 66 147 67
3 67 147 148
3 67 148 68
3 68 148 149
3 68 149 69
3 69 149 150
3 69 150 70
3 70 150 151
3 70 151 71
3 71 151 152
3 71 152 72
3 72 152 153
3 72 153 73
3 73 153 154
3 73 154 74
3 74 154 155
3 74 155 75
3 75 155 156
3 75 156 76
3 76 156 157
3 76 157 77
3 77 157 158
3 77 158 78
3 78 158 159
3 78 159 79
3 79 159 80
3 79 80 0
3 80 160 161
3 80 161 81
3 81 161 162
3 81 162 82
3 82 162 163
3 82 163 83
3 83 163 164
3 83 164 84
3 84 164 165
3 84 165 85
3 85 165 166
3 85 166 86
3 86 166 167
3 86 167 87
3 87 167 168
3 87 168 88
3 88 168 169
3 88 169 89
3 89 169 170
3 89 170 90
3 90 170 171
3 90 171 91
3 91 171 172
3 91 172 92
3 92 172 173
3 92 173 93
3 93 173 174
3 93 174 94
3 94 174 175
3 94 175 95
3 95 175 176
3 95 176 96
3 96 176 177
3 96 177 97
3 97 177 178
3 97 178 98
3 98 178 179
3 98 179 99
3 99 179 180
3 99 180 100
3 100 180 181
3 100 181 101
3 101 181 182
3 101 182 102
3 102 182 183
3 102 183 103
3 103 183 184
3 103 184 104
3 104 184 185
3 104 185 105
3 105 185 186
3 105 186 106
3 106 186 187
3 106 187 107
3 107 187 188
3 107 188 108
3 108 188 189
3 108 189 109
3 109 189 190
3 109 190 110
3 110 190 191
3 110 191 111
3 111 191 192
3 111 192 112
3 112 192 193
3 112 193 113
3 113 193 194
3 113 194 114
3 114 194 195
3 114 195 115
3 115 195 196
3 115 196 116
3 116 196 197
3 116 197 117
3 117 197 198
3 117 198 118
3 118 198 199
3 118 199 119
3 119 199 200
3 119 200 120
3 120 200 201
3 120 201 121
3 121 201 202
3 121 202 122
3 122 202 203
3 122 203 123
3 123 203 204
3 123 204 124
3 124 204 205
3 124 205 125
3 125 205 206
3 125 206 126
3 126 206 207
3 126 207 127
3 127 207 208
3 127 208 128
3 128 208 209
3 128 209 129
3 129 209 210
3 129 210 130
3 130 210 211
3 130 211 131
3 131 211 212
3 131 212 132
3 132 212 213
3 132 213 133
3 133 213 214
3 133 214 134
3 134 214 215
3 134 215 135
3 135 215 216
3 135 216 136
3 136 216 217
3 136 217 137
3 137 217 218
3 137 218 138
3 138 218 219
3 138 219 139
3 139 219 220
3 139 220 140
3 140 220 221
3 140 221 141
3 141 221 222
3 141 222 142
3 142 222 223
3 142 223 143
3 143 223 224
3 143 224 144
3 144 224 225
3 144 225 145
3 145 225 226
3 145 226 146
3 146 226 227
3 146 227 147
3 147 227 228
3 147 228 148
3 148 228 229
3 148 229 149
3 149 229 230
3 149 230 150
3 150 230 231
3 150 231 151
3 151 231 232
3 151 232 152
3 152 232 233
3 152 233 153
3 153 233 234
3 153 234 154
3 154 234 235
3 154 235 155
3 155 235 236
3 155 236 156
3 156 236 237
3 156 237 157
3 157 237 238
3 157 238 158
3 158 238 239
3 158 239 159
3 159 239 160
3 159 160 80
3 160 240 241
3 160 241 161
3 161 241 242
3 161 242 162
3 162 242 243
3 162 243 163
3 163 243 244
3 163 244 164
3 164 244 245
3 164 245 165
3 165 245 246
3 165 246 166
3 166 246 247
3 166 247 167
3 167 247 248
3 167 248 168
3 168 248 249
3 168 249 169
3 169 249 250
3 169 250 170
3 170 250 251
3 170 251 171
3 171 251 252
3 171 252 172
3 172 252 253
3 172 253 173
3 173 253 254
3 173 254 174
3 174 254 255
3 174 255 175
3 175 255 256
3 175 256 176
3 176 256 257
3 176 257 177
3 177 257 258
3 177 258 178
3 178 258 259
3 178 259 179
3 179 259 260
3 179 260 180
3 180 260 261
3 180 261 181
3 181 261 262
3 181 262 182
3 182 262 263
3 182 263 183
3 183 263 264
3 183 264 184
3 184 264 265
3 184 265 185
3 185 265 266
3 185 266 186
3 186 266 267
3 186 267 187
3 187 267 268
3 187 268 188
3 188 268 269
3 188 269 189
3 189 269 270
3 189 270 190
3 190 270 271
3 190 271 191
3 191 271 272
3 191 272 192
3 192 272 273
3 192 273 193
3 193 273 274
3 193 274 194
3 194 274 275
3 194 275 195
3 195 275 276
3 195 276 196
3 196 276 277
3 196 277 197
3 197 277 278
3 197 278 198
3 198 278 279
3 198 279 199
3 199 279 280
3 199 280 200
3 200 280 281
3 200 281 201
3 201 281 282
3 201 282 202
3 202 282 283
3 202 283 203
3 203 283 284
3 203 284 204
3 204 284 285
3 204 285 205
3 205 285 286
3 205 286 206
3 206 286 287
3 206 287 207
3 207 287 288
3 207 288 208
3 208 288 289
3 208 289 209
3 209 289 290
3 209 290 210
3 210 290 291
3 210 291 211
3 211 291 292
3 211 292 212
3 212 292 293
3 212 293 213
3 213 293 294
3 213 294 214
3 214 294 295
3 214 295 215
3 215 295 296
3 215 296 216
3 216 296 297
3 216 297 217
3 217 297 298
3 217 298 218
3 218 298 299
3 218 299 219
3 219 299 300
3 219 300 220
3 220 300 301
3 220 301 221
3 221 301 302
3 221 302 222
3 222 302 303
3 222 303 223
3 223 303 304
3 223 304 224
3 224 304 305
3 224 305 225
3 225 305 306
3 225 306 226
3 226 306 307
3 226 307 227
3 227 307 308
3 227 308 228
3 228 308 309
3 228 309 229
3 229 309 310
3 229 310 230
3 230 310 311
3 230 311 231
3 231 311 312
3 231 312 232
3 232 312 313
3 232 313 233
3 233 313 314
3 233 314 234
3 234 314 315
3 234 315 235
3 235 315 316
3 235 316 236
3 236 316 317
3 236 317 237
3 237 317 318
3 237 318 238
3 238 318 319
3 238 319 239
3 239 319 240
3 239 240 160
3 240 320 321
3 240 321 241
3 241 321 322
3 241 322 242
3 242 322 323
3 242 323 243
3 243 323 324
3 243 324 244
3 244 324 325
3 244 325 245
3 245 325 326
3 245 326 246
3 246 326 327
3 246 327 247
3 247 327 328
3 247 328 248
3 248 328 329
3 248 329 249
3 249 329 330
3 249 330 250
3 250 330 331
3 250 331 251
3 251 331 332
3 251 332 252
3 252 332 333
3 252 333 253
3 253 333 334
3 253 334 254
3 254 334 335
3 254 335 255
3 255 335 336
3 255 336 256
3 256 336 337
3 256 337 257
3 257 337 338
3 257 338 258
3 258 338 339
3 258 339 259
3 259 339 340
3 259 340 260
3 260 340 341
3 260 341 261
3 261 341 342
3 261 342 262
3 262 342 343
3 262 343 263
3 263 343 344
3 263 344 264
3 264 344 345
3 264 345 265
3 265 345 346
3 265 346 266
3 266 346 347
3 266 347 267
3 267 347 348
3 267 348 268
3 268 348 349
3 268 349 269
3 269 349 350
3 269 350 270
3 270 350 351
3 270 351 271
3 271 351 352
3 271 352 272
3 272 352 353
3 272 353 273
3 273 353 354
3 273 354 274
3 274 354 355
3 274 355 275
3 275 355 356
3 275 356 276
3 276 356 357
3 276 357 277
3 277 357 358
3 277 358 278
3 278 358 359
3 278 359 279
3 279 359 360
3 279 360 280
3 280 360 361
3 280 361 281
3 281 361 362
3 281 362 282
3 282 362 363
3 282 363 283
3 283 363 364
3 283 364 284
3 284 364 365
3 284 365 285
3 285 365 366
3 285 366 286
3 286 366 367
3 286 367 287
3 287 367 368
3 287 368 288
3 288 368 369
3 288 369 289
3 289 369 370
3 289 370 290
3 290 370 371
3 290 371 291
3 291 371 372
3 291 372 292
3 292 372 373
3 292 373 293
3 293 373 374
3 293 374 294
3 294 374 375
3 294 375 295
3 295 375 376
3 295 376 296
3 296 376 377
3 296 377 297
3 297 377 378
3 297 378 298
3 298 378 379
3 298 379 299
3 299 379 380
3 299 380 300
3 300 380 381
3 300 381 301
3 301 381 382
3 301 382 302
3 302 382 383
3 302 383 303
3 303 383 384
3 303 384 304
3 304 384 385
3 304 385 305
3 305 385 386
3 305 386 306
3 306 386 387
3 306 387 307
3 307 387 388
3 307 388 308
3 308 388 389
3 308 389 309
3 309 389 390
3 309 390 310
3 310 390 391
3 310 391 311
3 311 391 392
3 311 392 312
3 312 392 393
3 312 393 313
3 313 393 394
3 313 394 314
3 314 394 395
3 314 395 315
3 315 395 396
3 315 396 316
3 316 396 397
3 316 397 317
3 317 397 398
3 317 398 318
3 318 398 399
3 318 399 319
3 319 399 320
3 319 320 240
3 320 400 401
3 320 401 321
3 321 401 402
3 321 402 322
3 322 402 403
3 322 403 323
3 323 403 404
3 323 404 324
3 324 404 405
3 324 405 325
3 325 405 406
3 325 406 326
3 326 406 407
3 326 407 327
3 327 407 408
3 327 408 328
3 328 408 409
3 328 409 329
3 329 409 410
3 329 410 330
3 330 410 411
3 330 411 331
3 331 411 412
3 331 412 332
3 332 412 413
3 332 413 333
3 333 413 414
3 333 414 334
3 334 414 415
3 334 415 335
3 335 415 416
3 335 416 336
3 336 416 417
3 336 417 337
3 337 417 418
3 337 418 338
3 338 418 419
3 338 419 339
3 339 419 420
3 339 420 340
3 340 420 421
3 340 421 341
3 341 421 422
3 341 422 342
3 342 422 423
3 342 423 343
3 343 423 424
3 343 424 344
3 344 424 425
3 344 425 345
3 345 425 426
3 345 426 346
3 346 426 427
3 346 427 347
3 347 427 428
3 347 428 348
3 348 428 429
3 348 429 349
3 349 429 430
3 349 430 350
3 350 430 431
3 350 431 351
3 351 431 432
3 351 432 352
3 352 432 433
3 352 433 353
3 353 433 434
3 353 434 354
3 354 434 435
3 354 435 355
3 355 435 436
3 355 436 356
3 356 436 437
3 356 437 357
3 357 437 438
3 357 438 358
3 358 438 439
3 358 439 359
3 359 439 440
3 359 440 360
3 360 440 441
3 360 441 361
3 361 441 442
3 361 442 362
3 362 442 443
3 362 443 363
3 363 443 444
3 363 444 364
3 364 444 445
3 364 445 365
3 365 445 446
3 365 446 366
3 366 446 447
3 366 447 367
3 367 447 448
3 367 448 368
3 368 448 449
3 368 449 369
3 369 449 450
3 369 450 370
3 370 450 451
3 370 451 371
3 371 451 452
3 371 452 372
3 372 452 453
3 372 453 373
3 373 453 454
3 373 454 374
3 374 454 455
3 374 455 375
3 375 455 456
3 375 456 376
3 376 456 457
3 376 457 377
3 377 457 458
3 377 458 378
3 378 458 459
3 378 459 379
3 379 459 460
3 379 460 380
3 380 460 461
3 380 461 381
3 381 461 462
3 381 462 382
3 382 462 463
3 382 463 383
3 383 463 464
3 383 464 384
3 384 464 465
3 384 465 385
3 385 465 466
3 385 466 386
3 386 466 467
3 386 467 387
3 387 467 468
3 387 468 388
3 388 468 469
3 388 469 389
3 389 469 470
3 389 470 390
3 390 470 471
3 390 471 391
3 391 471 472
3 391 472 392
3 392 472 473
3 392 473 393
3 393 473 474
3 393 474 394
3 394 474 475
3 394 475 395
3 395 475 476
3 395 476 396
3 396 476 477
3 396 477 397
3 397 477 478
3 397 478 398
3 398 478 479
3 398 479 399
3 399 479 400
3 399 400 320
3 400 480 481
3 400 481 401
3 401 481 482
3 401 482 402
3 402 482 483
3 402 483 403
3 403 483 484
3 403 484 404
3 404 484 485
3 404 485 405
3 405 485 486
3 405 486 406
3 406 486 487
3 406 487 407
3 407 487 488
3 407 488 408
3 408 488 489
3 408 489 409
3 409 489 490
3 409 490 410
3 410 490 491
3 410 491 411
3 411 491 492
3 411 492 412
3 412 492 493
3 412 493 413
3 413 493 494
3 413 494 414
3 414 494 495
3 414 495 415
3 415 495 496
3 415 496 416
3 416 496 497
3 416 497 417
3 417 497 498
3 417 498 418
3 418 498 499
3 418 499 419
3 419 499 500
3 419 500 420
3 420 500 501
3 420 501 421
3 421 501 502
3 421 502 422
3 422 502 503
3 422 503 423
3 423 503 504
3 423 504 424
3 424 504 505
3 424 505 425
3 425 505 506
3 425 506 426
3 426 506 507
3 426 507 427
3 427 507 508
3 427 508 428
3 428 508 509
3 428 509 429
3 429 509 510
3 429 510 430
3 430 510 511
3 430 511 431
3 431 511 512
3 431 512 432
3 432 512 513
3 432 513 433
3 433 513 514
3 433 514 434
3 434 514 515
3 434 515 435
3 435 515 516
3 435 516 436
3 436 516 517
3 436 517 437
3 437 517 518
3 437 518 438
3 438 518 519
3 438 519 439
3 439 519 520
3 439 520 440
3 440 520 521
3 440 521 441
3 441 521 522
3 441 522 442
3 442 522 523
3 442 523 443
3 443 523 524
3 443 524 444
3 444 524 525
3 444 525 445
3 445 525 526
3 445 526 446
3 446 526 527
3 446 527 447
3 447 527 528
3 447 528 448
3 448 528 529
3 448 529 449
3 449 529 530
3 449 530 450
3 450 530 531
3 450 531 451
3 451 531 532
3 451 532 452
3 452 532 533
3 452 533 453
3 453 533 534
3 453 534 454
3 454 534 535
3 454 535 455
3 455 535 536
3 455 536 456
3 456 536 537
3 456 537 457
3 457 537 538
3 457 538 458
3 458 538 539
3 458 539 459
3 459 539 540
3 459 540 460
3 460 540 541
3 460 541 461
3 461 541 542
3 461 542 462
3 462 542 543
3 462 543 463
3 463 543 544
3 463 544 464
3 464 544 545
3 464 545 465
3 465 545 546
3 465 546 466
3 466 546 547
3 466 547 467
3 467 547 548
3 467 548 468
3 468 548 549
3 468 549 469
3 469 549 550
3 469 550 470
3 470 550 551
3 470 551 471
3 471 551 552
3 471 552 472
3 472 552 553
3 472 553 473
3 473 553 554
3 473 554 474
3 474 554 555
3 474 555 475
3 475 555 556
3 475 556 476
3 476 556 557
3 476 557 477
3 477 557 558
3 477 558 478
3 478 558 559
3 478 559 479
3 479 559 480
3 479 480 400
3 480 560 561
3 480 561 481
3 481 561 562
3 481 562 482
3 482 562 563
3 482 563 483
3 483 563 564
3 483 564 484
3 484 564 565
3 484 565 485
3 485 565 566
3 485 566 486
3 486 566 567
3 486 567 487
3 487 567 568
3 487 568 488
3 488 568 569
3 488 569 489
3 489 569 570
3 489 570 490
3 490 570 571
3 490 571 491
3 491 571 572
3 491 572 492
3 492 572 573
3 492 573 493
3 493 573 574
3 493 574 494
3 494 574 575
3 494 575 495
3 495 575 576
3 495 576 496
3 496 576 577
3 496 577 497
3 497 577 578
3 497 578 498
3 498 578 579
3 498 579 499
3 499 579 580
3 499 580 500
3 500 580 581
3 500 581 501
3 501 581 582
3 501 582 502
3 502 582 583
3 502 583 503
3 503 583 584
3 503 584 504
3 504 584 585
3 504 585 505
3 505 585 586
3 505 586 506
3 506 586 587
3 506 587 507
3 507 587 588
3 507 588 508
3 508 588 589
3 508 589 509
3 509 589 590
3 509 590 510
3 510 590 591
3 510 591 511
3 511 591 592
3 511 592 512
3 512 592 593
3 512 593 513
3 513 593 594
3 513 594 514
3 514 594 595
3 514 595 515
3 515 595 596
3 515 596 516
3 516 596 597
3 516 597 517
3 517 597 598
3 517 598 518
3 518 598 599
3 518 599 519
3 519 599 600
3 519 600 520
3 520 600 601
3 520 601 521
3 521 601 602
3 521 602 522
3 522 602 603
3 522 603 523
3 523 603 604
3 523 604 524
3 524 604 605
3 524 605 525
3 525 605 606
3 525 606 526
3 526 606 607
3 526 607 527
3 527 607 608
3 527 608 528
3 528 608 609
3 528 609 529
3 529 609 610
3 529 610 530
3 530 610 611
3 530 611 531
3 531 611 612
3 531 612 532
3 532 612 613
3 532 613 533
3 533 613 614
3 533 614 534
3 534 614 615
3 534 615 535
3 535 615 616
3 535 616 536
3 536 616 617
3 536 617 537
3 537 617 618
3 537 618 538
3 538 618 619
3 538 619 539
3 539 619 620
3 539 620 540
3 540 620 621
3 540 621 541
3 541 621 622
3 541 622 542
3 542 622 623
3 542 623 543
3 543 623 624
3 543 624 544
3 544 624 625
3 544 625 545
3 545 625 626
3 545 626 546
3 546 626 627
3 546 627 547
3 547 627 628
3 547 628 548
3 548 628 629
3 548 629 549
3 549 629 630
3 549 630 550
3 550 630 631
3 550 631 551
3 551 631 632
3 551 632 552
3 552 632 633
3 552 633 553
3 553 633 634
3 553 634 554
3 554 634 635
3 554 635 555
3 555 635 636
3 555 636 556
3 556 636 637
3 556 637 557
3 557 637 638
3 557 638 558
3 558 638 639
3 558 639 559
3 559 639 560
3 559 560 480
3 560 640 641
3 560 641 561
3 561 641 642
3 561 642 562
3 562 642 643
3 562 643 563
3 563 643 644
3 563 644 564
3 564 644 645
3 564 645 565
3 565 645 646
3 565 646 566
3 566 646 647
3 566 647 567
3 567 647 648
3 567 648 568
3 568 648 649
3 568 649 569
3 569 649 650
3 569 650 570
3 570 650 651
3 570 651 571
3 571 651 652
3 571 652 572
3 572 652 653
3 572 653 573
3 573 653 654
3 573 654 574
3 574 654 655
3 574 655 575
3 575 655 656
3 575 656 576
3 576 656 657
3 576 657 577
3 577 657 658
3 577 658 578
3 578 658 659
3 578 659 579
3 579 659 660
3 579 660 580
3 580 660 661
3 580 661 581
3 581 661 662
3 581 662 582
3 582 662 663
3 582 663 583
3 583 663 664
3 583 664 584
3 584 664 665
3 584 665 585
3 585 665 666
3 585 666 586
3 586 666 667
3 586 667 587
3 587 667 668
3 587 668 588
3 588 668 669
3 588 669 589
3 589 669 670
3 589 670 590
3 590 670 671
3 590 671 591
3 591 671 672
3 591 672 592
3 592 672 673
3 592 673 593
3 593 673 674
3 593 674 594
3 594 674 675
3 594 675 595
3 595 675 676
3 595 676 596
3 596 676 677
3 596 677 597
3 597 677 678
3 597 678 598
3 598 678 679
3 598 679 599
3 599 679 680
3 599 680 600
3 600 680 681
3 600 681 601
3 601 681 682
3 601 682 602
3 602 682 683
3 602 683 603
3 603 683 684
3 603 684 604
3 604 684 685
3 604 685 605
3 605 685 686
3 605 686 606
3 606 686 687
3 606 687 607
3 607 687 688
3 607 688 608
3 608 688 689
3 608 689 609
3 609 689 690
3 609 690 610
3 610 690 691
3 610 691 611
3 611 691 692
3 611 692 612
3 612 692 693
3 612 693 613
3 613 693 694
3 613 694 614
3 614 694 695
3 614 695 615
3 615 695 696
3 615 696 616
3 616 696 697
3 616 697 617
3 617 697 698
3 617 698 618
3 618 698 699
3 618 699 619
3 619 699 700
3 619 700 620
3 620 700 701
3 620 701 621
3 621 701 702
3 621 702 622
3 622 702 703
3 622 703 623
3 623 703 704
3 623 704 624
3 624 704 705
3 624 705 625
3 625 705 706
3 625 706 626
3 626 706 707
3 626 707 627
3 627 707 708
3 627 708 628
3 628 708 709
3 628 709 629
3 629 709 710
3 629 710 630
3 630 710 711
3 630 711 631
3 631 711 712
3 631 712 632
3 632 712 713
3 632 713 633
3 633 713 714
3 633 714 634
3 634 714 715
3 634 715 635
3 635 715 716
3 635 716 636
3 636 716 717
3 636 717 637
3 637 717 718
3 637 718 638
3 638 718 719
3 638 719 639
3 639 719 640
3 639 640 560
3 640 720 721
3 640 721 641
3 641 721 722
3 641 722 642
3 642 722 723
3 642 723 643
3 643 723 724
3 643 724 644
3 644 724 725
3 644 725 645
3 645 725 726
3 645 726 646
3 646 726 727
3 646 727 647
3 647 727 728
3 647 728 648
3 648 728 729
3 648 729 649
3 649 729 730
3 649 730 650
3 650 730 731
3 650 731 651
3 651 731 732
3 651 732 652
3 652 732 733
3 652 733 653
3 653 733 734
3 653 734 654
3 654 734 735
3 654 735 655
3 655 735 736
3 655 736 656
3 656 736 737
3 656 737 657
3 657 737 738
3 657 738 658
3 658 738 739
3 658 739 659
3 659 739 740
3 659 740 660
3 660 740 741
3 660 741 661
3 661 741 742
3 661 742 662
3 662 742 743
3 662 743 663
3 663 743 744
3 663 744 664
3 664 744 745
3 664 745 665
3 665 745 746
3 665 746 666
3 666 746 747
3 666 747 667
3 667 747 748
3 667 748 668
3 668 748 749
3 668 749 669
3 669 749 750
3 669 750 670
3 670 750 751
3 670 751 671
3 671 751 752
3 671 752 672
3 672 752 753
3 672 753 673
3 673 753 754
3 673 754 674
3 674 754 755
3 674 755 675
3 675 755 756
3 675 756 676
3 676 756 757
3 676 757 677
3 677 757 758
3 677 758 678
3 678 758 759
3 678 759 679
3 679 759 760
3 679 760 680
3 680 760 761
3 680 761 681
3 681 761 762
3 681 762 682
3 682 762 763
3 682 763 683
3 683 763 764
3 683 764 684
3 684 764 765
3 684 765 685
3 685 765 766
3 685 766 686
3 686 766 767
3 686 767 687
3 687 767 768
3 687 768 688
3 688 768 769
3 688 769 689
3 689 769 770
3 689 770 690
3 690 770 771
3 690 771 691
3 691 771 772
3 691 772 692
3 692 772 773
3 692 773 693
3 693 773 774
3 693 774 694
3 694 774 775
3 694 775 695
3 695 775 776
3 695 776 696
3 696 776 777
3 696 777 697
3 697 777 778
3 697 778 698
3 698 778 779
3 698 779 699
3 699 779 780
3 699 780 700
3 700 780 781
3 700 781 701
3 701 781 782
3 701 782 702
3 702 782 783
3 702 783 703
3 703 783 784
3 703 784 704
3 704 784 785
3 704 785 705
3 705 785 786
3 705 786 706
3 706 786 787
3 706 787 707
3 707 787 788
3 707 788 708
3 708 788 789
3 708 789 709
3 709 789 790
3 709 790 710
3 710 790 791
3 710 791 711
3 711 791 792
3 711 792 712
3 712 792 793
3 712 793 713
3 713 793 794
3 713 794 714
3 714 794 795
3 714 795 715
3 715 795 796
3 715 796 716
3 716 796 797
3 716 797 717
3 717 797 798
3 717 798 718
3 718 798 799
3 718 799 719
3 719 799 720
3 719 720 640
