ply
format ascii 1.0
comment this is a surface
element vertex 800
property float x
property float y
property float z
element face 1440
property list uchar int vertex_index
end_header
80.467843 81.877076 112.32
80.14869 81.852147 112.32
79.818955 81.821725 112.32
79.481615 81.785264 112.32
79.139646 81.742215 112.32
79.139646 81.742215 112.32
78.823914 81.730454 112.32
78.52218 81.696958 112.32
78.237543 81.644411 112.32
77.973105 81.575497 112.32
77.731966 81.492899 112.32
77.517227 81.3993 112.32
77.331987 81.297383 112.32
77.179349 81.189833 112.32
77.057633 81.071058 112.32
76.942224 80.899401 112.32
76.832533 80.680415 112.32
76.732583 80.428034 112.32
76.646402 80.156194 112.32
76.578012 79.878831 112.32
76.53144 79.609881 112.32
76.510709 79.36328 112.32
76.52291 79.134854 112.32
76.573858 78.894965 112.32
76.658798 78.647862 112.32
76.772686 78.399066 112.32
76.910474 78.154099 112.32
77.067114 77.918482 112.32
77.23756 77.697734 112.32
77.416765 77.497378 112.32
77.599683 77.322934 112.32
77.781265 77.179922 112.32
77.957114 77.073221 112.32
78.148655 76.981193 112.32
78.364732 76.892176 112.32
78.600363 76.807793 112.32
78.850568 76.729664 112.32
79.110366 76.659412 112.32
79.374776 76.598658 112.32
79.638818 76.549025 112.32
79.897511 76.512135 112.32
80.145874 76.489609 112.32
80.379245 76.483188 112.32
80.621599 76.504368 112.32
80.884895 76.557396 112.32
81.161451 76.638682 112.32
81.443587 76.744635 112.32
81.723623 76.871664 112.32
81.993878 77.016177 112.32
82.246672 77.174585 112.32
82.474324 77.343295 112.32
82.669154 77.518717 112.32
82.823481 77.697259 112.32
82.929626 77.875332 112.32
82.979907 78.049343 112.32
82.981493 78.229893 112.32
82.974373 78.453268 112.32
82.961525 78.71438 112.32
82.943167 79.005319 112.32
82.919521 79.318178 112.32
82.890805 79.645048 112.32
82.857239 79.97802 112.32
82.819042 80.309185 112.32
82.776434 80.630635 112.32
82.729635 80.934461 112.32
82.678864 81.212754 112.32
82.624341 81.457605 112.32
82.566286 81.661107 112.32
82.504917 81.81535 112.32
82.440456 81.912426 112.32
82.373084 81.944495 112.32
82.283066 81.944391 112.32
82.155687 81.943717 112.32
81.99392 81.941925 112.32
81.800743 81.938468 112.32
81.579131 81.9328 112.32
81.332059 81.924374 112.32
81.062503 81.912642 112.32
80.773439 81.897058 112.32
80.467843 81.877076 112.32
81.904443 88.307349 103.68
81.152996 88.400907 103.68
80.4109 88.464982 103.68
79.677677 88.505154 103.68
78.952852 88.527003 103.68
78.235946 88.53611 103.68
77.526483 88.538055 103.68
76.817506 88.471331 103.68
76.10483 88.197099 103.68
75.415161 87.789415 103.68
74.776599 87.333906 103.68
74.194093 86.891835 103.68
73.5796 86.386088 103.68
72.975527 85.815782 103.68
72.445898 85.198671 103.68
72.054734 84.552509 103.68
71.866059 83.895051 103.68
71.807978 83.207144 103.68
71.758938 82.468089 103.68
71.719421 81.696547 103.68
71.689933 80.911187 103.68
71.670982 80.130676 103.68
71.663075 79.373684 103.68
71.716046 78.638437 103.68
71.904943 77.900571 103.68
72.18898 77.173742 103.68
72.524348 76.472722 103.68
72.867238 75.812282 103.68
73.239688 75.176945 103.68
73.687913 74.550423 103.68
74.193654 73.951641 103.68
74.738602 73.399549 103.68
75.304445 72.913098 103.68
75.88657 72.483558 103.68
76.517332 72.040902 103.68
77.188761 71.61224 103.68
77.888916 71.233324 103.68
78.605858 70.939906 103.68
79.327645 70.767737 103.68
80.046027 70.739411 103.68
80.783435 70.759546 103.68
81.539114 70.799645 103.68
82.304595 70.857206 103.68
83.071407 70.929728 103.68
83.831081 71.01471 103.68
84.575146 71.109648 103.68
85.319521 71.230285 103.68
86.109289 71.426509 103.68
86.893269 71.689732 103.68
87.613853 72.007017 103.68
88.213433 72.365427 103.68
88.65779 72.77204 103.68
89.051137 73.32483 103.68
89.407898 74.001672 103.68
89.720237 74.758246 103.68
89.980317 75.550231 103.68
90.180302 76.333307 103.68
90.316985 77.071041 103.68
90.433393 77.815598 103.68
90.53553 78.575809 103.68
90.615348 79.338694 103.68
90.664794 80.091272 103.68
90.672162 80.822408 103.68
90.553847 81.560772 103.68
90.306561 82.303259 103.68
89.968633 83.02705 103.68
89.578394 83.709324 103.68
89.174173 84.327262 103.68
88.764315 84.877703 103.68
88.286653 85.402262 103.68
87.742297 85.89956 103.68
87.137016 86.365125 103.68
86.476576 86.794482 103.68
85.766745 87.183158 103.68
85.01329 87.52668 103.68
85.01329 87.52668 103.68
84.219665 87.793974 103.68
83.437301 88.009463 103.68
82.665719 88.178728 103.68
81.904443 88.307349 103.68
81.756004 92.446234 95.04
80.66706 92.471591 95.04
79.577998 92.480978 95.04
78.493902 92.378203 95.04
77.433431 92.12627 95.04
76.388692 91.817572 95.04
75.344743 91.50711 95.04
74.287158 91.246332 95.04
73.222132 91.017907 95.04
72.16738 90.746667 95.04
71.159468 90.343143 95.04
70.32048 89.642347 95.04
69.52161 88.90174 95.04
68.738753 88.144481 95.04
67.924653 87.420739 95.04
67.11327 86.6941 95.04
66.339082 85.928013 95.04
65.647661 85.08636 95.04
65.131903 84.14017 95.04
65.183 83.048588 95.04
65.376098 81.975955 95.04
65.651573 80.92191 95.04
65.988075 79.885849 95.04
66.368877 78.865306 95.04
66.782168 77.857761 95.04
67.318796 76.909981 95.04
67.96024 76.029268 95.04
68.60382 75.15052 95.04
69.269239 74.28817 95.04
69.95023 73.438066 95.04
70.641216 72.596067 95.04
71.336815 71.757877 95.04
72.032022 70.919358 95.04
72.737752 70.089885 95.04
73.516144 69.328023 95.04
74.366212 68.647007 95.04
75.279462 68.053405 95.04
76.24694 67.553042 95.04
77.25916 67.150818 95.04
78.306268 66.851278 95.04
79.38015 66.668352 95.04
80.464586 66.568795 95.04
81.553533 66.585369 95.04
82.630297 66.751253 95.04
83.680652 67.040829 95.04
84.706943 67.406128 95.04
85.719512 67.807609 95.04
86.731154 68.211335 95.04
87.736361 68.630791 95.04
88.717265 69.1046 95.04
89.647662 69.671486 95.04
90.450542 70.406547 95.04
91.125667 71.261657 95.04
91.839029 72.084808 95.04
92.529276 72.927817 95.04
93.128763 73.838025 95.04
93.527934 74.850555 95.04
93.740457 75.918823 95.04
93.953011 76.987111 95.04
94.161304 78.056238 95.04
94.364096 79.126422 95.04
94.560151 80.197861 95.04
94.522859 81.364166 95.04
94.417609 82.448335 95.04
94.242896 83.523411 95.04
93.997183 84.583294 95.04
93.491908 85.549032 95.04
92.845316 86.42661 95.04
92.156734 87.270594 95.04
91.42634 88.078671 95.04
90.655675 88.84825 95.04
89.824411 89.551935 95.04
88.930074 90.173891 95.04
87.993413 90.72983 95.04
87.01886 91.21629 95.04
86.011585 91.630762 95.04
84.976904 91.971106 95.04
83.920151 92.234963 95.04
82.844821 92.404615 95.04
81.756004 92.446234 95.04
82.332232 93.649836 86.4
81.155894 93.642981 86.4
79.986627 93.623843 86.4
78.82547 93.594559 86.4
77.673463 93.557269 86.4
76.520314 93.455581 86.4
75.362482 93.246968 86.4
74.211139 92.954385 86.4
73.07746 92.600787 86.4
71.972615 92.209133 86.4
70.907779 91.802377 86.4
69.737921 91.340707 86.4
68.450932 90.776841 86.4
67.258292 90.122829 86.4
66.371482 89.390721 86.4
66.001983 88.592567 86.4
66.012628 87.649984 86.4
66.048169 86.511043 86.4
66.103567 85.263232 86.4
66.174851 83.994382 86.4
66.258057 82.792323 86.4
66.409317 81.652337 86.4
66.668152 80.516093 86.4
67.008252 79.387831 86.4
67.403309 78.27179 86.4
67.827014 77.17221 86.4
68.253057 76.093331 86.4
68.70464 75.027113 86.4
69.216041 73.97047 86.4
69.778884 72.934688 86.4
70.384791 71.931054 86.4
71.025388 70.970855 86.4
71.741044 70.065725 86.4
72.535725 69.203436 86.4
73.34833 68.359633 86.4
74.143049 67.424617 86.4
75.005254 66.721751 86.4
76.007183 66.356389 86.4
77.115952 66.036092 86.4
78.29398 65.77042 86.4
79.503686 65.568933 86.4
80.707489 65.441192 86.4
81.86781 65.396759 86.4
83.008816 65.503639 86.4
84.161032 65.786632 86.4
85.297961 66.192278 86.4
86.393108 66.66712 86.4
87.419978 67.1577 86.4
88.402733 67.720924 86.4
89.363869 68.421594 86.4
90.275419 69.220271 86.4
91.109417 70.077517 86.4
91.837898 70.953892 86.4
92.534647 71.86877 86.4
93.24905 72.856043 86.4
93.917228 73.898409 86.4
94.475301 74.978566 86.4
94.859391 76.079211 86.4
95.005627 77.183044 86.4
95.013029 78.315769 86.4
95.018912 79.49386 86.4
95.023204 80.688058 86.4
95.025828 81.869104 86.4
95.026707 83.007741 86.4
94.873129 84.137503 86.4
94.470052 85.278138 86.4
93.898084 86.382011 86.4
93.237832 87.401489 86.4
92.569902 88.288937 86.4
91.833657 89.070623 86.4
90.946267 89.80122 86.4
89.950747 90.477825 86.4
88.890108 91.097534 86.4
87.807364 91.657443 86.4
86.745527 92.154649 86.4
85.689433 92.599974 86.4
84.59857 93.001888 86.4
83.477862 93.35398 86.4
82.332232 93.649836 86.4
82.332232 93.649836 86.4
81.932933 96.02274 77.76
80.630562 96.313613 77.76
80.630562 96.313613 77.76
79.267252 96.280778 77.76
77.93243 96.188391 77.76
76.625163 96.045624 77.76
75.344513 95.861654 77.76
74.089546 95.645653 77.76
72.856288 95.385702 77.76
71.628726 94.92132 77.76
70.43657 94.287501 77.76
69.318757 93.571378 77.76
68.269616 92.826151 77.76
67.177075 91.971395 77.76
66.138078 91.017822 77.76
65.272031 89.989881 77.76
64.698338 88.912022 77.76
64.384124 87.760825 77.76
64.113453 86.489467 77.76
63.898289 85.149136 77.76
63.756038 83.793009 77.76
63.704103 82.47426 77.76
63.786386 81.18546 77.76
64.012685 79.889753 77.76
64.347312 78.599117 77.76
64.75458 77.325536 77.76
65.198799 76.080992 77.76
65.646699 74.876774 77.76
66.174902 73.69399 77.76
66.813433 72.531237 77.76
67.532842 71.404933 77.76
68.303681 70.331493 77.76
69.100075 69.319253 77.76
69.959023 68.270929 77.76
70.891337 67.23273 77.76
71.887598 66.307738 77.76
72.938389 65.599037 77.76
74.044079 65.169861 77.76
75.253841 64.814844 77.76
76.545823 64.501313 77.76
77.883797 64.24576 77.76
79.231532 64.064676 77.76
80.552797 63.974552 77.76
81.834182 64.016353 77.76
83.125265 64.257485 77.76
84.40958 64.646454 77.76
85.664044 65.12276 77.76
86.865575 65.625905 77.76
88.029931 66.168021 77.76
89.193534 66.841638 77.76
90.311234 67.619598 77.76
91.336089 68.471755 77.76
92.221155 69.367966 77.76
93.026371 70.337979 77.76
93.823574 71.420127 77.76
94.560968 72.584505 77.76
95.186627 73.801141 77.76
95.648621 75.040058 77.76
95.897971 76.272628 77.76
96.048785 77.540701 77.76
96.179017 78.857559 77.76
96.284197 80.196631 77.76
96.359854 81.531347 77.76
96.401515 82.835138 77.76
96.379536 84.0931 77.76
96.101484 85.371585 77.76
95.589543 86.648038 77.76
94.919513 87.876037 77.76
94.167194 89.00916 77.76
93.408386 90.000985 77.76
92.582412 90.874142 77.76
91.584733 91.691438 77.76
90.464311 92.448305 77.76
89.270424 93.140022 77.76
88.052349 93.76187 77.76
86.859295 94.309163 77.76
85.674412 94.803132 77.76
84.456978 95.259031 77.76
83.209112 95.66839 77.76
81.932933 96.02274 77.76
82.648426 96.499563 69.12
81.307164 96.492247 69.12
79.975518 96.471423 69.12
78.654244 96.438777 69.12
77.344098 96.395996 69.12
76.042225 96.336569 69.12
74.712175 96.163167 69.12
73.369849 95.866286 69.12
72.047783 95.470538 69.12
70.778514 95.000539 69.12
69.594576 94.4809 69.12
68.507627 93.918748 69.12
67.353026 93.153803 69.12
66.218388 92.197017 69.12
65.267326 91.118587 69.12
64.66345 89.988708 69.12
64.48431 88.845171 69.12
64.383738 87.583342 69.12
64.305703 86.232649 69.12
64.252156 84.845904 69.12
64.22505 83.475919 69.12
64.24264 82.156222 69.12
64.379584 80.827465 69.12
64.623646 79.495472 69.12
64.949918 78.178734 69.12
65.333497 76.895744 69.12
65.749476 75.664991 69.12
66.211841 74.49663 69.12
66.859835 73.365529 69.12
67.655733 72.273024 69.12
68.538384 71.224834 69.12
69.446633 70.22668 69.12
70.342913 69.271999 69.12
71.290407 68.325491 69.12
72.291331 67.414886 69.12
73.337633 66.574885 69.12
74.421259 65.840185 69.12
75.544205 65.207601 69.12
76.735143 64.562411 69.12
77.976894 63.948397 69.12
79.247042 63.428369 69.12
80.523167 63.065137 69.12
81.782854 62.921508 69.12
83.046568 63.0487 69.12
84.335382 63.407028 69.12
85.614958 63.920066 69.12
86.850856 64.51137 69.12
88.00968 65.105947 69.12
89.14928 65.772716 69.12
90.278469 66.564812 69.12
91.339486 67.452806 69.12
92.274574 68.407267 69.12
93.027956 69.399695 69.12
93.710462 70.478435 69.12
94.375975 71.661949 69.12
94.971805 72.918245 69.12
95.445262 74.21533 69.12
95.743655 75.521212 69.12
95.824995 76.807849 69.12
95.839083 78.116129 69.12
95.850074 79.45094 69.12
95.857791 80.792836 69.12
95.862057 82.122371 69.12
95.849516 83.424798 69.12
95.659296 84.739785 69.12
95.289231 86.054252 69.12
94.797553 87.334038 69.12
94.242494 88.544981 69.12
93.66745 89.661043 69.12
92.932823 90.75152 69.12
92.034871 91.800862 69.12
91.031656 92.758435 69.12
89.98124 93.573605 69.12
88.922298 94.227166 69.12
87.80036 94.827577 69.12
86.608902 95.373625 69.12
85.351026 95.846708 69.12
84.029834 96.228222 69.12
82.648426 96.499563 69.12
82.648426 96.499563 69.12
82.327033 97.114145 60.48
80.945924 97.191745 60.48
79.573328 97.231519 60.48
78.210419 97.246111 60.48
76.858372 97.248159 60.48
75.459693 97.166673 60.48
74.004102 96.942578 60.48
72.56014 96.602147 60.48
71.196345 96.171656 60.48
69.981257 95.677376 60.48
68.980665 95.140658 60.48
68.099753 94.33236 60.48
67.283412 93.205928 60.48
66.561152 91.886783 60.48
65.962482 90.500349 60.48
65.516913 89.172049 60.48
65.162667 87.884091 60.48
64.83471 86.54504 60.48
64.562794 85.176934 60.48
64.376678 83.801823 60.48
64.306123 82.44176 60.48
64.364412 81.081081 60.48
64.530562 79.700101 60.48
64.78393 78.319341 60.48
65.103878 76.959336 60.48
65.469766 75.640622 60.48
65.860957 74.383736 60.48
66.379011 73.186729 60.48
67.101714 72.030671 60.48
67.957191 70.91286 60.48
68.87351 69.830602 60.48
69.778743 68.781202 60.48
70.664989 67.725336 60.48
71.588849 66.655217 60.48
72.556516 65.632058 60.48
73.573996 64.717235 60.48
74.647294 63.972125 60.48
75.811906 63.330729 60.48
77.079318 62.695107 60.48
78.408732 62.115639 60.48
79.75926 61.643006 60.48
81.090017 61.327885 60.48
82.360283 61.221304 60.48
83.595658 61.468201 60.48
84.824231 62.068647 60.48
86.026683 62.892171 60.48
87.183697 63.808301 60.48
88.275955 64.686563 60.48
89.325019 65.540303 60.48
90.352428 66.475905 60.48
91.330367 67.477277 60.48
92.230972 68.52818 60.48
93.026381 69.612382 60.48
93.779348 70.739045 60.48
94.561375 71.92927 60.48
95.29673 73.169037 60.48
95.908644 74.444061 60.48
96.320346 75.740055 60.48
96.456233 77.043012 60.48
96.446264 78.381738 60.48
96.42014 79.76323 60.48
96.379137 81.15915 60.48
96.324533 82.541164 60.48
96.257291 83.881044 60.48
96.036084 85.204546 60.48
95.59081 86.527413 60.48
94.990989 87.819842 60.48
94.306141 89.052034 60.48
93.605787 90.194186 60.48
92.852924 91.298511 60.48
91.968608 92.41082 60.48
90.979727 93.474164 60.48
89.913283 94.431495 60.48
88.796279 95.225766 60.48
87.654893 95.801803 60.48
86.446485 96.259555 60.48
85.145366 96.655962 60.48
83.767045 96.953375 60.48
82.327033 97.114145 60.48
82.327033 97.114145 60.48
82.971578 98.207372 51.84
81.603821 98.187123 51.84
80.254386 98.130643 51.84
78.924616 98.044337 51.84
77.615848 97.934607 51.84
76.326568 97.791557 51.84
75.03727 97.485827 51.84
73.757859 97.024588 51.84
72.505427 96.453003 51.84
71.297067 95.816237 51.84
70.14987 95.159456 51.84
69.002308 94.45629 51.84
67.829701 93.63054 51.84
66.778679 92.705191 51.84
65.997408 91.704325 51.84
65.511281 90.61375 51.84
65.079566 89.371401 51.84
64.717007 88.029964 51.84
64.455256 86.648319 51.84
64.325964 85.285343 51.84
64.343384 83.964211 51.84
64.463543 82.618897 51.84
64.666294 81.264672 51.84
64.93423 79.923465 51.84
65.249947 78.617208 51.84
65.596042 77.36783 51.84
66.032609 76.185302 51.84
66.691774 75.048382 51.84
67.503064 73.948751 51.84
68.387963 72.878971 51.84
69.26796 71.8316 51.84
70.102438 70.783209 51.84
70.955598 69.71342 51.84
71.841968 68.668874 51.84
72.772111 67.699003 51.84
73.756587 66.853245 51.84
74.81441 66.117801 51.84
75.96382 65.362457 51.84
77.18111 64.641082 51.84
78.440336 64.020245 51.84
79.715556 63.566522 51.84
80.980826 63.346483 51.84
82.243586 63.40728 51.84
83.553257 63.699247 51.84
84.869091 64.155393 51.84
86.145906 64.709656 51.84
87.338519 65.295977 51.84
88.449136 65.934104 51.84
89.535082 66.740553 51.84
90.566379 67.671247 51.84
91.510391 68.677262 51.84
92.334485 69.709673 51.84
93.089678 70.769631 51.84
93.867011 71.911099 51.84
94.600958 73.115731 51.84
95.22337 74.363792 51.84
95.666094 75.635548 51.84
95.860981 76.911262 51.84
95.871027 78.20019 51.84
95.877063 79.52955 51.84
95.88154 80.881449 51.84
95.884392 82.237401 51.84
95.885551 83.57892 51.84
95.836456 84.920997 51.84
95.664443 86.292441 51.84
95.395472 87.651795 51.84
95.057485 88.956209 51.84
94.678428 90.162836 51.84
94.186293 91.290138 51.84
93.447132 92.40906 51.84
92.521633 93.48234 51.84
91.474525 94.470354 51.84
90.370538 95.333478 51.84
89.274403 96.032085 51.84
88.166324 96.608698 51.84
86.972926 97.135485 51.84
85.703197 97.591585 51.84
84.366345 97.955911 51.84
82.971578 98.207372 51.84
82.971578 98.207372 51.84
82.310492 96.717121 43.2
80.832873 96.69994 43.2
79.400587 96.64959 43.2
78.012575 96.567867 43.2
76.667776 96.456564 43.2
75.365131 96.317473 43.2
74.10358 96.152389 43.2
72.877165 95.830524 43.2
71.686239 95.136632 43.2
70.553559 94.230604 43.2
69.502557 93.286204 43.2
68.502393 92.372122 43.2
67.498544 91.373427 43.2
66.559086 90.302334 43.2
65.754925 89.175213 43.2
65.15697 88.008434 43.2
64.710591 86.780414 43.2
64.296178 85.466902 43.2
63.952889 84.102338 43.2
63.720864 82.721488 43.2
63.640123 81.359014 43.2
63.678243 79.989451 43.2
63.780306 78.591222 43.2
63.937561 77.190986 43.2
64.141257 75.815399 43.2
64.382644 74.491121 43.2
64.65802 73.243966 43.2
65.166426 72.056586 43.2
65.937475 70.912738 43.2
66.864949 69.814055 43.2
67.842629 68.762167 43.2
68.772474 67.755724 43.2
69.718636 66.754896 43.2
70.718976 65.777591 43.2
71.76792 64.863986 43.2
72.859897 64.054261 43.2
73.992519 63.373572 43.2
75.192227 62.697243 43.2
76.450898 62.03555 43.2
77.749245 61.448351 43.2
79.067979 60.995506 43.2
80.387812 60.736873 43.2
81.706955 60.720514 43.2
83.100689 60.89185 43.2
84.514348 61.201261 43.2
85.8692 61.60894 43.2
87.086513 62.075078 43.2
88.134961 62.664028 43.2
89.101829 63.572646 43.2
89.995728 64.698433 43.2
90.819581 65.923176 43.2
91.57631 67.128661 43.2
92.315038 68.274622 43.2
93.090977 69.459784 43.2
93.836294 70.681226 43.2
94.48012 71.93234 43.2
94.951585 73.206521 43.2
95.179819 74.497164 43.2
95.241672 75.822525 43.2
95.291838 77.19406 43.2
95.329316 78.585419 43.2
95.352661 79.970161 43.2
95.360294 81.321868 43.2
95.205371 82.646325 43.2
94.817275 83.959853 43.2
94.28248 85.256528 43.2
93.687461 86.530424 43.2
93.117857 87.776742 43.2
92.556854 89.085408 43.2
91.951718 90.453743 43.2
91.292411 91.793234 43.2
90.568897 93.015365 43.2
89.771139 94.031625 43.2
88.888543 94.755513 43.2
87.858108 95.326962 43.2
86.6598 95.847793 43.2
85.318904 96.27906 43.2
83.860706 96.581818 43.2
82.310492 96.717121 43.2
82.310492 96.717121 43.2
81.133565 94.840846 34.56
79.831437 94.711123 34.56
78.561581 94.485911 34.56
77.330774 94.191895 34.56
76.145637 93.854926 34.56
74.993798 93.405502 34.56
73.866914 92.812731 34.56
72.769072 92.115059 34.56
71.704354 91.350932 34.56
70.676847 90.558797 34.56
69.68769 89.774116 34.56
68.68701 88.957663 34.56
67.697713 88.086442 34.56
66.775673 87.162419 34.56
65.976766 86.187559 34.56
65.343508 85.160226 34.56
64.74261 84.039559 34.56
64.181817 82.840688 34.56
63.734105 81.598555 34.56
63.47245 80.3481 34.56
63.445361 79.109113 34.56
63.535452 77.820103 34.56
63.704248 76.503024 34.56
63.93788 75.197706 34.56
64.222483 73.94398 34.56
64.544191 72.781676 34.56
64.981549 71.723112 34.56
65.71225 70.71888 34.56
66.645202 69.768416 34.56
67.676389 68.874259 34.56
68.701791 68.038949 34.56
69.681373 67.249002 34.56
70.712465 66.480503 34.56
71.788938 65.757731 34.56
72.8988 65.106903 34.56
74.030058 64.554238 34.56
75.183613 64.069358 34.56
76.373239 63.579183 34.56
77.59121 63.115752 34.56
78.829306 62.713381 34.56
80.079308 62.406383 34.56
81.332997 62.229071 34.56
82.595007 62.205931 34.56
83.917985 62.268729 34.56
85.183825 62.378359 34.56
86.304168 62.569035 34.56
87.434147 63.041665 34.56
88.55931 63.765217 34.56
89.639948 64.68161 34.56
90.636355 65.732761 34.56
91.508823 66.86059 34.56
92.217644 68.007015 34.56
92.72311 69.113956 34.56
93.057109 70.193943 34.56
93.363133 71.370835 34.56
93.63711 72.624081 34.56
93.868221 73.926508 34.56
94.045652 75.25094 34.56
94.158585 76.5702 34.56
94.196254 77.85719 34.56
94.179893 79.132468 34.56
94.136488 80.417214 34.56
94.070536 81.695602 34.56
93.98653 82.951803 34.56
93.831137 84.196083 34.56
93.498327 85.45919 34.56
93.028561 86.70283 34.56
92.467843 87.886151 34.56
91.862173 88.968304 34.56
91.201424 89.963045 34.56
90.374824 90.969728 34.56
89.414539 91.936184 34.56
88.361547 92.801334 34.56
87.256826 93.504098 34.56
86.141355 93.983395 34.56
84.998083 94.300929 34.56
83.773153 94.575063 34.56
82.480277 94.767945 34.56
81.133565 94.840846 34.56
81.133565 94.840846 34.56
3 0 80 81
3 0 81 1
3 1 81 82
3 1 82 2
3 2 82 83
3 2 83 3
3 3 83 84
3 3 84 4
3 4 84 85
3 4 85 5
3 5 85 86
3 5 86 6
3 6 86 87
3 6 87 7
3 7 87 88
3 7 88 8
3 8 88 89
3 8 89 9
3 9 89 90
3 9 90 10
3 10 90 91
3 10 91 11
3 11 91 92
3 11 92 12
3 12 92 93
3 12 93 13
3 13 93 94
3 13 94 14
3 14 94 95
3 14 95 15
3 15 95 96
3 15 96 16
3 16 96 97
3 16 97 17
3 17 97 98
3 17 98 18
3 18 98 99
3 18 99 19
3 19 99 100
3 19 100 20
3 20 100 101
3 20 101 21
3 21 101 102
3 21 102 22
3 22 102 103
3 22 103 23
3 23 103 104
3 23 104 24
3 24 104 105
3 24 105 25
3 25 105 106
3 25 106 26
3 26 106 107
3 26 107 27
3 27 107 108
3 27 108 28
3 28 108 109
3 28 109 29
3 29 109 110
3 29 110 30
3 30 110 111
3 30 111 31
3 31 111 112
3 31 112 32
3 32 112 113
3 32 113 33
3 33 113 114
3 33 114 34
3 34 114 115
3 34 115 35
3 35 115 116
3 35 116 36
3 36 116 117
3 36 117 37
3 37 117 118
3 37 118 38
3 38 118 119
3 38 119 39
3 39 119 120
3 39 120 40
3 40 120 121
3 40 121 41
3 41 121 122
3 41 122 42
3 42 122 123
3 42 123 43
3 43 123 124
3 43 124 44
3 44 124 125
3 44 125 45
3 45 125 126
3 45 126 46
3 46 126 127
3 46 127 47
3 47 127 128
3 47 128 48
3 48 128 129
3 48 129 49
3 49 129 130
3 49 130 50
3 50 130 131
3 50 131 51
3 51 131 132
3 51 132 52
3 52 132 133
3 52 133 53
3 53 133 134
3 53 134 54
3 54 134 135
3 54 135 55
3 55 135 136
3 55 136 56
3 56 136 137
3 56 137 57
3 57 137 138
3 57 138 58
3 58 138 139
3 58 139 59
3 59 139 140
3 59 140 60
3 60 140 141
3 60 141 61
3 61 141 142
3 61 142 62
3 62 142 143
3 62 143 63
3 63 143 144
3 63 144 64
3 64 144 145
3 64 145 65
3 65 145 146
3 65 146 66
3 66 146 147
3 66 147 67
3 67 147 148
3 67 148 68
3 68 148 149
3 68 149 69
3 69 149 150
3 69 150 70
3 70 150 151
3 70 151 71
3 71 151 152
3 71 152 72
3 72 152 153
3 72 153 73
3 73 153 154
3 73 154 74
3 74 154 155
3 74 155 75
3 75 155 156
3 75 156 76
3 76 156 157
3 76 157 77
3 77 157 158
3 77 158 78
3 78 158 159
3 78 159 79
3 79 159 80
3 79 80 0
3 80 160 161
3 80 161 81
3 81 161 162
3 81 162 82
3 82 162 163
3 82 163 83
3 83 163 164
3 83 164 84
3 84 164 165
3 84 165 85
3 85 165 166
3 85 166 86
3 86 166 167
3 86 167 87
3 87 167 168
3 87 168 88
3 88 168 169
3 88 169 89
3 89 169 170
3 89 170 90
3 90 170 171
3 90 171 91
3 91 171 172
3 91 172 92
3 92 172 173
3 92 173 93
3 93 173 174
3 93 174 94
3 94 174 175
3 94 175 95
3 95 175 176
3 95 176 96
3 96 176 177
3 96 177 97
3 97 177 178
3 97 178 98
3 98 178 179
3 98 179 99
3 99 179 180
3 99 180 100
3 100 180 181
3 100 181 101
3 101 181 182
3 101 182 102
3 102 182 183
3 102 183 103
3 103 183 184
3 103 184 104
3 104 184 185
3 104 185 105
3 105 185 186
3 105 186 106
3 106 186 187
3 106 187 107
3 107 187 188
3 107 188 108
3 108 188 189
3 108 189 109
3 109 189 190
3 109 190 110
3 110 190 191
3 110 191 111
3 111 191 192
3 111 192 112
3 112 192 193
3 112 193 113
3 113 193 194
3 113 194 114
3 114 194 195
3 114 195 115
3 115 195 196
3 115 196 116
3 116 196 197
3 116 197 117
3 117 197 198
3 117 198 118
3 118 198 199
3 118 199 119
3 119 199 200
3 119 200 120
3 120 200 201
3 120 201 121
3 121 201 202
3 121 202 122
3 122 202 203
3 122 203 123
3 123 203 204
3 123 204 124
3 124 204 205
3 124 205 125
3 125 205 206
3 125 206 126
3 126 206 207
3 126 207 127
3 127 207 208
3 127 208 128
3 128 208 209
3 128 209 129
3 129 209 210
3 129 210 130
3 130 210 211
3 130 211 131
3 131 211 212
3 131 212 132
3 132 212 213
3 132 213 133
3 133 213 214
3 133 214 134
3 134 214 215
3 134 215 135
3 135 215 216
3 135 216 136
3 136 216 217
3 136 217 137
3 137 217 218
3 137 218 138
3 138 218 219
3 138 219 139
3 139 219 220
3 139 220 140
3 140 220 221
3 140 221 141
3 141 221 222
3 141 222 142
3 142 222 223
3 142 223 143
3 143 223 224
3 143 224 144
3 144 224 225
3 144 225 145
3 145 225 226
3 145 226 146
3 146 226 227
3 146 227 147
3 147 227 228
3 147 228 148
3 148 228 229
3 148 229 149
3 149 229 230
3 149 230 150
3 150 230 231
3 150 231 151
3 151 231 232
3 151 232 152
3 152 232 233
3 152 233 153
3 153 233 234
3 153 234 154
3 154 234 235
3 154 235 155
3 155 235 236
3 155 236 156
3 156 236 237
3 156 237 157
3 157 237 238
3 157 238 158
3 158 238 239
3 158 239 159
3 159 239 160
3 159 160 80
3 160 240 241
3 160 241 161
3 161 241 242
3 161 242 162
3 162 242 243
3 162 243 163
3 163 243 244
3 163 244 164
3 164 244 245
3 164 245 165
3 165 245 246
3 165 246 166
3 166 246 247
3 166 247 167
3 167 247 248
3 167 248 168
3 168 248 249
3 168 249 169
3 169 249 250
3 169 250 170
3 170 250 251
3 170 251 171
3 171 251 252
3 171 252 172
3 172 252 253
3 172 253 173
3 173 253 254
3 173 254 174
3 174 254 255
3 174 255 175
3 175 255 256
3 175 256 176
3 176 256 257
3 176 257 177
3 177 257 258
3 177 258 178
3 178 258 259
3 178 259 179
3 179 259 260
3 179 260 180
3 180 260 261
3 180 261 181
3 181 261 262
3 181 262 182
3 182 262 263
3 182 263 183
3 183 263 264
3 183 264 184
3 184 264 265
3 184 265 185
3 185 265 266
3 185 266 186
3 186 266 267
3 186 267 187
3 187 267 268
3 187 268 188
3 188 268 269
3 188 269 189
3 189 269 270
3 189 270 190
3 190 270 271
3 190 271 191
3 191 271 272
3 191 272 192
3 192 272 273
3 192 273 193
3 193 273 274
3 193 274 194
3 194 274 275
3 194 275 195
3 195 275 276
3 195 276 196
3 196 276 277
3 196 277 197
3 197 277 278
3 197 278 198
3 198 278 279
3 198 279 199
3 199 279 280
3 199 280 200
3 200 280 281
3 200 281 201
3 201 281 282
3 201 282 202
3 202 282 283
3 202 283 203
3 203 283 284
3 203 284 204
3 204 284 285
3 204 285 205
3 205 285 286
3 205 286 206
3 206 286 287
3 206 287 207
3 207 287 288
3 207 288 208
3 208 288 289
3 208 289 209
3 209 289 290
3 209 290 210
3 210 290 291
3 210 291 211
3 211 291 292
3 211 292 212
3 212 292 293
3 212 293 213
3 213 293 294
3 213 294 214
3 214 294 295
3 214 295 215
3 215 295 296
3 215 296 216
3 216 296 297
3 216 297 217
3 217 297 298
3 217 298 218
3 218 298 299
3 218 299 219
3 219 299 300
3 219 300 220
3 220 300 301
3 220 301 221
3 221 301 302
3 221 302 222
3 222 302 303
3 222 303 223
3 223 303 304
3 223 304 224
3 224 304 305
3 224 305 225
3 225 305 306
3 225 306 226
3 226 306 307
3 226 307 227
3 227 307 308
3 227 308 228
3 228 308 309
3 228 309 229
3 229 309 310
3 229 310 230
3 230 310 311
3 230 311 231
3 231 311 312
3 231 312 232
3 232 312 313
3 232 313 233
3 233 313 314
3 233 314 234
3 234 314 315
3 234 315 235
3 235 315 316
3 235 316 236
3 236 316 317
3 236 317 237
3 237 317 318
3 237 318 238
3 238 318 319
3 238 319 239
3 239 319 240
3 239 240 160
3 240 320 321
3 240 321 241
3 241 321 322
3 241 322 242
3 242 322 323
3 242 323 243
3 243 323 324
3 243 324 244
3 244 324 325
3 244 325 245
3 245 325 326
3 245 326 246
3 246 326 327
3 246 327 247
3 247 327 328
3 247 328 248
3 248 328 329
3 248 329 249
3 249 329 330
3 249 330 250
3 250 330 331
3 250 331 251
3 251 331 332
3 251 332 252
3 252 332 333
3 252 333 253
3 253 333 334
3 253 334 254
3 254 334 335
3 254 335 255
3 255 335 336
3 255 336 256
3 256 336 337
3 256 337 257
3 257 337 338
3 257 338 258
3 258 338 339
3 258 339 259
3 259 339 340
3 259 340 260
3 260 340 341
3 260 341 261
3 261 341 342
3 261 342 262
3 262 342 343
3 262 343 263
3 263 343 344
3 263 344 264
3 264 344 345
3 264 345 265
3 265 345 346
3 265 346 266
3 266 346 347
3 266 347 267
3 267 347 348
3 267 348 268
3 268 348 349
3 268 349 269
3 269 349 350
3 269 350 270
3 270 350 351
3 270 351 271
3 271 351 352
3 271 352 272
3 272 352 353
3 272 353 273
3 273 353 354
3 273 354 274
3 274 354 355
3 274 355 275
3 275 355 356
3 275 356 276
3 276 356 357
3 276 357 277
3 277 357 358
3 277 358 278
3 278 358 359
3 278 359 279
3 279 359 360
3 279 360 280
3 280 360 361
3 280 361 281
3 281 361 362
3 281 362 282
3 282 362 363
3 282 363 283
3 283 363 364
3 283 364 284
3 284 364 365
3 284 365 285
3 285 365 366
3 285 366 286
3 286 366 367
3 286 367 287
3 287 367 368
3 287 368 288
3 288 368 369
3 288 369 289
3 289 369 370
3 289 370 290
3 290 370 371
3 290 371 291
3 291 371 372
3 291 372 292
3 292 372 373
3 292 373 293
3 293 373 374
3 293 374 294
3 294 374 375
3 294 375 295
3 295 375 376
3 295 376 296
3 296 376 377
3 296 377 297
3 297 377 378
3 297 378 298
3 298 378 379
3 298 379 299
3 299 379 380
3 299 380 300
3 300 380 381
3 300 381 301
3 301 381 382
3 301 382 302
3 302 382 383
3 302 383 303
3 303 383 384
3 303 384 304
3 304 384 385
3 304 385 305
3 305 385 386
3 305 386 306
3 306 386 387
3 306 387 307
3 307 387 388
3 307 388 308
3 308 388 389
3 308 389 309
3 309 389 390
3 309 390 310
3 310 390 391
3 310 391 311
3 311 391 392
3 311 392 312
3 312 392 393
3 312 393 313
3 313 393 394
3 313 394 314
3 314 394 395
3 314 395 315
3 315 395 396
3 315 396 316
3 316 396 397
3 316 397 317
3 317 397 398
3 317 398 318
3 318 398 399
3 318 399 319
3 319 399 320
3 319 320 240
3 320 400 401
3 320 401 321
3 321 401 402
3 321 402 322
3 322 402 403
3 322 403 323
3 323 403 404
3 323 404 324
3 324 404 405
3 324 405 325
3 325 405 406
3 325 406 326
3 326 406 407
3 326 407 327
3 327 407 408
3 327 408 328
3 328 408 409
3 328 409 329
3 329 409 410
3 329 410 330
3 330 410 411
3 330 411 331
3 331 411 412
3 331 412 332
3 332 412 413
3 332 413 333
3 333 413 414
3 333 414 334
3 334 414 415
3 334 415 335
3 335 415 416
3 335 416 336
3 336 416 417
3 336 417 337
3 337 417 418
3 337 418 338
3 338 418 419
3 338 419 339
3 339 419 420
3 339 420 340
3 340 420 421
3 340 421 341
3 341 421 422
3 341 422 342
3 342 422 423
3 342 423 343
3 343 423 424
3 343 424 344
3 344 424 425
3 344 425 345
3 345 425 426
3 345 426 346
3 346 426 427
3 346 427 347
3 347 427 428
3 347 428 348
3 348 428 429
3 348 429 349
3 349 429 430
3 349 430 350
3 350 430 431
3 350 431 351
3 351 431 432
3 351 432 352
3 352 432 433
3 352 433 353
3 353 433 434
3 353 434 354
3 354 434 435
3 354 435 355
3 355 435 436
3 355 436 356
3 356 436 437
3 356 437 357
3 357 437 438
3 357 438 358
3 358 438 439
3 358 439 359
3 359 439 440
3 359 440 360
3 360 440 441
3 360 441 361
3 361 441 442
3 361 442 362
3 362 442 443
3 362 443 363
3 363 443 444
3 363 444 364
3 364 444 445
3 364 445 365
3 365 445 446
3 365 446 366
3 366 446 447
3 366 447 367
3 367 447 448
3 367 448 368
3 368 448 449
3 368 449 369
3 369 449 450
3 369 450 370
3 370 450 451
3 370 451 371
3 371 451 452
3 371 452 372
3 372 452 453
3 372 453 373
3 373 453 454
3 373 454 374
3 374 454 455
3 374 455 375
3 375 455 456
3 375 456 376
3 376 456 457
3 376 457 377
3 377 457 458
3 377 458 378
3 378 458 459
3 378 459 379
3 379 459 460
3 379 460 380
3 380 460 461
3 380 461 381
3 381 461 462
3 381 462 382
3 382 462 463
3 382 463 383
3 383 463 464
3 383 464 384
3 384 464 465
3 384 465 385
3 385 465 466
3 385 466 386
3 386 466 467
3 386 467 387
3 387 467 468
3 387 468 388
3 388 468 469
3 388 469 389
3 389 469 470
3 389 470 390
3 390 470 471
3 390 471 391
3 391 471 472
3 391 472 392
3 392 472 473
3 392 473 393
3 393 473 474
3 393 474 394
3 394 474 475
3 394 475 395
3 395 475 476
3 395 476 396
3 396 476 477
3 396 477 397
3 397 477 478
3 397 478 398
3 398 478 479
3 398 479 399
3 399 479 400
3 399 400 320
3 400 480 481
3 400 481 401
3 401 481 482
3 401 482 402
3 402 482 483
3 402 483 403
3 403 483 484
3 403 484 404
3 404 484 485
3 404 485 405
3 405 485 486
3 405 486 406
3 406 486 487
3 406 487 407
3 407 487 488
3 407 488 408
3 408 488 489
3 408 489 409
3 409 489 490
3 409 490 410
3 410 490 491
3 410 491 411
3 411 491 492
3 411 492 412
3 412 492 493
3 412 493 413
3 413 493 494
3 413 494 414
3 414 494 495
3 414 495 415
3 415 495 496
3 415 496 416
3 416 496 497
3 416 497 417
3 417 497 498
3 417 498 418
3 418 498 499
3 418 499 419
3 419 499 500
3 419 500 420
3 420 500 501
3 420 501 421
3 421 501 502
3 421 502 422
3 422 502 503
3 422 503 423
3 423 503 504
3 423 504 424
3 424 504 505
3 424 505 425
3 425 505 506
3 425 506 426
3 426 506 507
3 426 507 427
3 427 507 508
3 427 508 428
3 428 508 509
3 428 509 429
3 429 509 510
3 429 510 430
3 430 510 511
3 430 511 431
3 431 511 512
3 431 512 432
3 432 512 513
3 432 513 433
3 433 513 514
3 433 514 434
3 434 514 515
3 434 515 435
3 435 515 516
3 435 516 436
3 436 516 517
3 436 517 437
3 437 517 518
3 437 518 438
3 438 518 519
3 438 519 439
3 439 519 520
3 439 520 440
3 440 520 521
3 440 521 441
3 441 521 522
3 441 522 442
3 442 522 523
3 442 523 443
3 443 523 524
3 443 524 444
3 444 524 525
3 444 525 445
3 445 525 526
3 445 526 446
3 446 526 527
3 446 527 447
3 447 527 528
3 447 528 448
3 448 528 529
3 448 529 449
3 449 529 530
3 449 530 450
3 450 530 531
3 450 531 451
3 451 531 532
3 451 532 452
3 452 532 533
3 452 533 453
3 453 533 534
3 453 534 454
3 454 534 535
3 454 535 455
3 455 535 536
3 455 536 456
3 456 536 537
3 456 537 457
3 457 537 538
3 457 538 458
3 458 538 539
3 458 539 459
3 459 539 540
3 459 540 460
3 460 540 541
3 460 541 461
3 461 541 542
3 461 542 462
3 462 542 543
3 462 543 463
3 463 543 544
3 463 544 464
3 464 544 545
3 464 545 465
3 465 545 546
3 465 546 466
3 466 546 547
3 466 547 467
3 467 547 548
3 467 548 468
3 468 548 549
3 468 549 469
3 469 549 550
3 469 550 470
3 470 550 551
3 470 551 471
3 471 551 552
3 471 552 472
3 472 552 553
3 472 553 473
3 473 553 554
3 473 554 474
3 474 554 555
3 474 555 475
3 475 555 556
3 475 556 476
3 476 556 557
3 476 557 477
3 477 557 558
3 477 558 478
3 478 558 559
3 478 559 479
3 479 559 480
3 479 480 400
3 480 560 561
3 480 561 481
3 481 561 562
3 481 562 482
3 482 562 563
3 482 563 483
3 483 563 564
3 483 564 484
3 484 564 565
3 484 565 485
3 485 565 566
3 485 566 486
3 486 566 567
3 486 567 487
3 487 567 568
3 487 568 488
3 488 568 569
3 488 569 489
3 489 569 570
3 489 570 490
3 490 570 571
3 490 571 491
3 491 571 572
3 491 572 492
3 492 572 573
3 492 573 493
3 493 573 574
3 493 574 494
3 494 574 575
3 494 575 495
3 495 575 576
3 495 576 496
3 496 576 577
3 496 577 497
3 497 577 578
3 497 578 498
3 498 578 579
3 498 579 499
3 499 579 580
3 499 580 500
3 500 580 581
3 500 581 501
3 501 581 582
3 501 582 502
3 502 582 583
3 502 583 503
3 503 583 584
3 503 584 504
3 504 584 585
3 504 585 505
3 505 585 586
3 505 586 506
3 506 586 587
3 506 587 507
3 507 587 588
3 507 588 508
3 508 588 589
3 508 589 509
3 509 589 590
3 509 590 510
3 510 590 591
3 510 591 511
3 511 591 592
3 511 592 512
3 512 592 593
3 512 593 513
3 513 593 594
3 513 594 514
3 514 594 595
3 514 595 515
3 515 595 596
3 515 596 516
3 516 596 597
3 516 597 517
3 517 597 598
3 517 598 518
3 518 598 599
3 518 599 519
3 519 599 600
3 519 600 520
3 520 600 601
3 520 601 521
3 521 601 602
3 521 602 522
3 522 602 603
3 522 603 523
3 523 603 604
3 523 604 524
3 524 604 605
3 524 605 525
3 525 605 606
3 525 606 526
3 526 606 607
3 526 607 527
3 527 607 608
3 527 608 528
3 528 608 609
3 528 609 529
3 529 609 610
3 529 610 530
3 530 610 611
3 530 611 531
3 531 611 612
3 531 612 532
3 532 612 613
3 532 613 533
3 533 613 614
3 533 614 534
3 534 614 615
3 534 615 535
3 535 615 616
3 535 616 536
3 536 616 617
3 536 617 537
3 537 617 618
3 537 618 538
3 538 618 619
3 538 619 539
3 539 619 620
3 539 620 540
3 540 620 621
3 540 621 541
3 541 621 622
3 541 622 542
3 542 622 623
3 542 623 543
3 543 623 624
3 543 624 544
3 544 624 625
3 544 625 545
3 545 625 626
3 545 626 546
3 546 626 627
3 546 627 547
3 547 627 628
3 547 628 548
3 548 628 629
3 548 629 549
3 549 629 630
3 549 630 550
3 550 630 631
3 550 631 551
3 551 631 632
3 551 632 552
3 552 632 633
3 552 633 553
3 553 633 634
3 553 634 554
3 554 634 635
3 554 635 555
3 555 635 636
3 555 636 556
3 556 636 637
3 556 637 557
3 557 637 638
3 557 638 558
3 558 638 639
3 558 639 559
3 559 639 560
3 559 560 480
3 560 640 641
3 560 641 561
3 561 641 642
3 561 642 562
3 562 642 643
3 562 643 563
3 563 643 644
3 563 644 564
3 564 644 645
3 564 645 565
3 565 645 646
3 565 646 566
3 566 646 647
3 566 647 567
3 567 647 648
3 567 648 568
3 568 648 649
3 568 649 569
3 569 649 650
3 569 650 570
3 570 650 651
3 570 651 571
3 571 651 652
3 571 652 572
3 572 652 653
3 572 653 573
3 573 653 654
3 573 654 574
3 574 654 655
3 574 655 575
3 575 655 656
3 575 656 576
3 576 656 657
3 576 657 577
3 577 657 658
3 577 658 578
3 578 658 659
3 578 659 579
3 579 659 660
3 579 660 580
3 580 660 661
3 580 661 581
3 581 661 662
3 581 662 582
3 582 662 663
3 582 663 583
3 583 663 664
3 583 664 584
3 584 664 665
3 584 665 585
3 585 665 666
3 585 666 586
3 586 666 667
3 586 667 587
3 587 667 668
3 587 668 588
3 588 668 669
3 588 669 589
3 589 669 670
3 589 670 590
3 590 670 671
3 590 671 591
3 591 671 672
3 591 672 592
3 592 672 673
3 592 673 593
3 593 673 674
3 593 674 594
3 594 674 675
3 594 675 595
3 595 675 676
3 595 676 596
3 596 676 677
3 596 677 597
3 597 677 678
3 597 678 598
3 598 678 679
3 598 679 599
3 599 679 680
3 599 680 600
3 600 680 681
3 600 681 601
3 601 681 682
3 601 682 602
3 602 682 683
3 602 683 603
3 603 683 684
3 603 684 604
3 604 684 685
3 604 685 605
3 605 685 686
3 605 686 606
3 606 686 687
3 606 687 607
3 607 687 688
3 607 688 608
3 608 688 689
3 608 689 609
3 609 689 690
3 609 690 610
3 610 690 691
3 610 691 611
3 611 691 692
3 611 692 612
3 612 692 693
3 612 693 613
3 613 693 694
3 613 694 614
3 614 694 695
3 614 695 615
3 615 695 696
3 615 696 616
3 616 696 697
3 616 697 617
3 617 697 698
3 617 698 618
3 618 698 699
3 618 699 619
3 619 699 700
3 619 700 620
3 620 700 701
3 620 701 621
3 621 701 702
3 621 702 622
3 622 702 703
3 622 703 623
3 623 703 704
3 623 704 624
3 624 704 705
3 624 705 625
3 625 705 706
3 625 706 626
3 626 706 707
3 626 707 627
3 627 707 708
3 627 708 628
3 628 708 709
3 628 709 629
3 629 709 710
3 629 710 630
3 630 710 711
3 630 711 631
3 631 711 712
3 631 712 632
3 632 712 713
3 632 713 633
3 633 713 714
3 633 714 634
3 634 714 715
3 634 715 635
3 635 715 716
3 635 716 636
3 636 716 717
3 636 717 637
3 637 717 718
3 637 718 638
3 638 718 719
3 638 719 639
3 639 719 640
3 639 640 560
3 640 720 721
3 640 721 641
3 641 721 722
3 641 722 642
3 642 722 723
3 642 723 643
3 643 723 724
3 643 724 644
3 644 724 725
3 644 725 645
3 645 725 726
3 645 726 646
3 646 726 727
3 646 727 647
3 647 727 728
3 647 728 648
3 648 728 729
3 648 729 649
3 649 729 730
3 649 730 650
3 650 730 731
3 650 731 651
3 651 731 732
3 651 732 652
3 652 732 733
3 652 733 653
3 653 733 734
3 653 734 654
3 654 734 735
3 654 735 655
3 655 735 736
3 655 736 656
3 656 736 737
3 656 737 657
3 657 737 738
3 657 738 658
3 658 738 739
3 658 739 659
3 659 739 740
3 659 740 660
3 660 740 741
3 660 741 661
3 661 741 742
3 661 742 662
3 662 742 743
3 662 743 663
3 663 743 744
3 663 744 664
3 664 744 745
3 664 745 665
3 665 745 746
3 665 746 666
3 666 746 747
3 666 747 667
3 667 747 748
3 667 748 668
3 668 748 749
3 668 749 669
3 669 749 750
3 669 750 670
3 670 750 751
3 670 751 671
3 671 751 752
3 671 752 672
3 672 752 753
3 672 753 673
3 673 753 754
3 673 754 674
3 674 754 755
3 674 755 675
3 675 755 756
3 675 756 676
3 676 756 757
3 676 757 677
3 677 757 758
3 677 758 678
3 678 758 759
3 678 759 679
3 679 759 760
3 679 760 680
3 680 760 761
3 680 761 681
3 681 761 762
3 681 762 682
3 682 762 763
3 682 763 683
3 683 763 764
3 683 764 684
3 684 764 765
3 684 765 685
3 685 765 766
3 685 766 686
3 686 766 767
3 686 767 687
3 687 767 768
3 687 768 688
3 688 768 769
3 688 769 689
3 689 769 770
3 689 770 690
3 690 770 771
3 690 771 691
3 691 771 772
3 691 772 692
3 692 772 773
3 692 773 693
3 693 773 774
3 693 774 694
3 694 774 775
3 694 775 695
3 695 775 776
3 695 776 696
3 696 776 777
3 696 777 697
3 697 777 778
3 697 778 698
3 698 778 779
3 698 779 699
3 699 779 780
3 699 780 700
3 700 780 781
3 700 781 701
3 701 781 782
3 701 782 702
3 702 782 783
3 702 783 703
3 703 783 784
3 703 784 704
3 704 784 785
3 704 785 705
3 705 785 786
3 705 786 706
3 706 786 787
3 706 787 707
3 707 787 788
3 707 788 708
3 708 788 789
3 708 789 709
3 709 789 790
3 709 790 710
3 710 790 791
3 710 791 711
3 711 791 792
3 711 792 712
3 712 792 793
3 712 793 713
3 713 793 794
3 713 794 714
3 714 794 795
3 714 795 715
3 715 795 796
3 715 796 716
3 716 796 797
3 716 797 717
3 717 797 798
3 717 798 718
3 718 798 799
3 718 799 719
3 719 799 720
3 719 720 640
