ply
format ascii 1.0
comment this is a surface
element vertex 800
property float x
property float y
property float z
element face 1440
property list uchar int vertex_index
end_header
82.945024 91.311399 112.32
82.004047 91.495005 112.32
81.08099 91.592503 112.32
80.178354 91.63115 112.32
79.298642 91.638206 112.32
78.42772 91.556858 112.32
77.549819 91.278542 112.32
76.6872 90.853683 112.32
75.862809 90.335822 112.32
75.09959 89.778504 112.32
74.419946 89.231593 112.32
73.815941 88.601855 112.32
73.263655 87.865167 112.32
72.745834 87.073021 112.32
72.245224 86.276908 112.32
71.723676 85.512086 112.32
71.127863 84.745392 112.32
70.525394 83.969003 112.32
69.993391 83.179529 112.32
69.608976 82.37358 112.32
69.449271 81.547765 112.32
69.49924 80.681075 112.32
69.650516 79.769627 112.32
69.875608 78.846381 112.32
70.147476 77.944431 112.32
70.439082 77.09687 112.32
70.811903 76.306585 112.32
71.315514 75.548743 112.32
71.90013 74.816106 112.32
72.515963 74.101441 112.32
73.113398 73.397283 112.32
73.692322 72.660476 112.32
74.284555 71.904943 112.32
74.902173 71.191367 112.32
75.557253 70.580432 112.32
76.262288 70.127756 112.32
77.034707 69.736747 112.32
77.867618 69.360868 112.32
78.745763 69.016411 112.32
79.653884 68.719669 112.32
80.576722 68.486933 112.32
81.499018 68.334495 112.32
82.405514 68.278647 112.32
83.343812 68.294475 112.32
84.329566 68.341463 112.32
85.291321 68.416883 112.32
86.157595 68.518022 112.32
86.864999 68.67799 112.32
87.461049 69.220061 112.32
87.991533 70.059154 112.32
88.484887 70.990391 112.32
88.970362 71.817835 112.32
89.478579 72.591153 112.32
89.989485 73.375975 112.32
90.469655 74.174513 112.32
90.885664 74.988981 112.32
91.204089 75.821592 112.32
91.426708 76.678949 112.32
91.632921 77.569016 112.32
91.815499 78.480191 112.32
91.960822 79.399808 112.32
92.055267 80.315203 112.32
92.084837 81.213921 112.32
91.99094 82.113601 112.32
91.768166 83.018376 112.32
91.458996 83.908782 112.32
91.105914 84.765356 112.32
90.747095 85.572191 112.32
90.324226 86.383576 112.32
89.817113 87.198929 112.32
89.241193 87.984866 112.32
88.611902 88.708005 112.32
87.944675 89.334961 112.32
87.254949 89.832353 112.32
86.523769 90.231095 112.32
85.717056 90.594739 112.32
84.844844 90.907096 112.32
83.917408 91.151528 112.32
82.945024 91.311399 112.32
82.945024 91.311399 112.32
81.02695 92.785939 103.68
79.845824 92.785939 103.68
78.678697 92.785939 103.68
77.527579 92.785939 103.68
76.394477 92.785939 103.68
75.261154 92.697196 103.68
74.115425 92.42474 103.68
72.9815 92.012357 103.68
71.883784 91.504639 103.68
70.846682 90.946179 103.68
69.894419 90.381358 103.68
68.95721 89.732586 103.68
68.018687 88.939163 103.68
67.159158 88.042718 103.68
66.458935 87.084878 103.68
65.998062 86.107128 103.68
65.682069 85.063492 103.68
65.401772 83.924885 103.68
65.178511 82.738388 103.68
65.033628 81.551081 103.68
64.989389 80.409576 103.68
65.156775 79.29692 103.68
65.538215 78.190536 103.68
66.043722 77.102427 103.68
66.58331 76.044597 103.68
67.099314 75.025483 103.68
67.68314 74.034311 103.68
68.330899 73.067023 103.68
69.021009 72.121298 103.68
69.731889 71.194811 103.68
70.442901 70.282095 103.68
71.159962 69.340772 103.68
71.902341 68.405964 103.68
72.686146 67.539959 103.68
73.527484 66.805047 103.68
74.462497 66.171633 103.68
75.508235 65.531696 103.68
76.614153 64.954411 103.68
77.728388 64.513394 103.68
78.799072 64.282264 103.68
79.788726 64.366804 103.68
80.727206 64.852147 103.68
81.63801 65.613533 103.68
82.542134 66.513271 103.68
83.460579 67.413665 103.68
84.414342 68.177025 103.68
85.425124 68.686916 103.68
86.503872 69.062091 103.68
87.625437 69.382651 103.68
88.76002 69.69133 103.68
89.877823 70.030858 103.68
90.973873 70.44031 103.68
92.287473 70.901386 103.68
93.566108 71.420481 103.68
94.399216 72.021246 103.68
94.507721 72.741176 103.68
94.414716 73.65777 103.68
94.246667 74.738378 103.68
94.021729 75.934156 103.68
93.758054 77.196256 103.68
93.473794 78.475834 103.68
93.187101 79.724042 103.68
92.916004 80.892801 103.68
92.655063 82.041446 103.68
92.382479 83.210499 103.68
92.084132 84.369185 103.68
91.745903 85.486729 103.68
91.353674 86.532355 103.68
90.884034 87.48955 103.68
90.250352 88.457103 103.68
89.467678 89.412701 103.68
88.577317 90.297259 103.68
87.620575 91.051688 103.68
86.638758 91.616901 103.68
85.653118 91.976204 103.68
84.5959 92.286546 103.68
83.465658 92.544468 103.68
82.272604 92.720692 103.68
81.02695 92.785939 103.68
81.02695 92.785939 103.68
81.822017 94.350671 95.04
80.488095 94.420556 95.04
79.16665 94.455403 95.04
77.860036 94.467406 95.04
76.570056 94.467069 95.04
75.263062 94.343765 95.04
73.93944 94.051844 95.04
72.629187 93.628821 95.04
71.362302 93.112208 95.04
70.168783 92.53952 95.04
69.078629 91.94827 95.04
67.984488 91.256282 95.04
66.828817 90.371001 95.04
65.75787 89.347057 95.04
64.918205 88.239322 95.04
64.45638 87.102666 95.04
64.387425 85.948752 95.04
64.356316 84.684277 95.04
64.331634 83.341024 95.04
64.313393 81.961785 95.04
64.30161 80.589353 95.04
64.296299 79.266522 95.04
64.439024 78.010627 95.04
65.004692 76.784632 95.04
65.684083 75.623498 95.04
66.366242 74.532499 95.04
67.149775 73.484218 95.04
68.004713 72.469863 95.04
68.901087 71.48064 95.04
69.808926 70.507754 95.04
70.703759 69.545131 95.04
71.635505 68.619268 95.04
72.601798 67.721476 95.04
73.574357 66.829096 95.04
74.524901 65.919469 95.04
75.425148 64.969937 95.04
76.238279 63.938964 95.04
77.018699 62.874336 95.04
77.879184 61.846804 95.04
78.805801 60.69546 95.04
79.82365 59.951893 95.04
81.026683 59.982564 95.04
82.374946 60.258796 95.04
83.565728 60.659262 95.04
84.679537 61.324824 95.04
85.744224 62.164881 95.04
86.772846 63.067856 95.04
87.780648 63.92706 95.04
88.816518 64.769567 95.04
89.869555 65.634525 95.04
90.904465 66.527782 95.04
91.885953 67.455188 95.04
92.778726 68.422593 95.04
93.54749 69.435846 95.04
94.167228 70.504273 95.04
94.761379 71.679327 95.04
95.291736 72.938904 95.04
95.648395 74.234119 95.04
95.735936 75.520343 95.04
95.735936 76.832343 95.04
95.735936 78.17268 95.04
95.735936 79.517586 95.04
95.735936 80.843292 95.04
95.735936 82.126031 95.04
95.65585 83.362558 95.04
95.261943 84.598261 95.04
94.6222 85.811929 95.04
93.829769 86.976317 95.04
92.9778 88.064181 95.04
92.156784 89.049724 95.04
91.277918 89.993941 95.04
90.280667 90.909581 95.04
89.197811 91.752465 95.04
88.062131 92.478414 95.04
86.906407 93.04325 95.04
85.723572 93.480549 95.04
84.476246 93.863451 95.04
83.172819 94.163283 95.04
81.822017 94.350671 95.04
81.822017 94.350671 95.04
81.758278 94.901389 86.4
80.329121 94.876331 86.4
78.908897 94.809356 86.4
77.49897 94.71276 86.4
76.100315 94.597528 86.4
74.696449 94.406548 86.4
73.288978 94.117092 86.4
71.893091 93.747507 86.4
70.523974 93.316142 86.4
69.196814 92.841344 86.4
67.894973 92.331888 86.4
66.384879 91.704525 86.4
64.855898 90.950271 86.4
63.606883 90.087467 86.4
62.936693 89.134453 86.4
62.903966 88.049072 86.4
62.953097 86.713469 86.4
63.033986 85.220433 86.4
63.137842 83.675705 86.4
63.255876 82.18503 86.4
63.404907 80.7757 86.4
63.623879 79.357813 86.4
63.905727 77.943894 86.4
64.242345 76.549245 86.4
64.625625 75.189171 86.4
65.047814 73.878877 86.4
65.593236 72.605525 86.4
66.296478 71.359842 86.4
67.106989 70.153645 86.4
67.974218 68.998751 86.4
68.852399 67.906887 86.4
69.802646 66.880146 86.4
70.833064 65.902654 86.4
71.908792 64.956579 86.4
72.994965 64.024087 86.4
74.070804 63.097255 86.4
75.189744 62.21354 86.4
76.293356 61.319979 86.4
77.297893 60.317436 86.4
78.162731 58.906196 86.4
79.028124 57.779139 86.4
80.051099 57.675115 86.4
81.237056 57.998806 86.4
82.530417 58.563555 86.4
83.87835 59.302054 86.4
85.228022 60.146996 86.4
86.5266 61.031072 86.4
87.72125 61.886974 86.4
88.812323 62.732794 86.4
89.86756 63.678912 86.4
90.880227 64.703932 86.4
91.841853 65.783554 86.4
92.743971 66.893482 86.4
93.595071 68.015635 86.4
94.486274 69.187827 86.4
95.285955 70.414051 86.4
95.81469 71.685426 86.4
96.051801 73.008462 86.4
96.250233 74.398534 86.4
96.41603 75.83194 86.4
96.545324 77.283772 86.4
96.63425 78.729124 86.4
96.678939 80.14309 86.4
96.640012 81.521948 86.4
96.371741 82.932633 86.4
95.906118 84.345956 86.4
95.29801 85.719638 86.4
94.602285 87.011402 86.4
93.873809 88.178968 86.4
93.108484 89.213399 86.4
92.1414 90.20478 86.4
91.009258 91.139064 86.4
89.769913 91.990671 86.4
88.481223 92.734022 86.4
87.201043 93.343537 86.4
85.924264 93.842794 86.4
84.58556 94.282568 86.4
83.193699 94.642468 86.4
81.758278 94.901389 86.4
81.758278 94.901389 86.4
82.116678 97.272056 77.76
80.49593 97.267783 77.76
78.894026 97.256201 77.76
77.316434 97.231863 77.76
75.731004 97.03068 77.76
74.143991 96.625913 77.76
72.58278 96.073426 77.76
71.074757 95.429084 77.76
69.647308 94.748751 77.76
68.267311 94.015989 77.76
66.85124 93.089945 77.76
65.519598 92.009702 77.76
64.403081 90.824862 77.76
63.627447 89.582478 77.76
63.01753 88.188819 77.76
62.474512 86.633994 77.76
62.061599 85.000028 77.76
61.841998 83.368941 77.76
61.847107 81.789219 77.76
61.98069 80.188096 77.76
62.209414 78.575539 77.76
62.509758 76.972592 77.76
62.858198 75.400296 77.76
63.232727 73.879098 77.76
63.745433 72.37749 77.76
64.438752 70.893231 77.76
65.257984 69.462553 77.76
66.148429 68.121688 77.76
67.089795 66.902712 77.76
68.19859 65.790643 77.76
69.430857 64.745805 77.76
70.717005 63.728883 77.76
71.987442 62.700559 77.76
73.2361 61.637787 77.76
74.738774 60.607874 77.76
76.242589 59.573091 77.76
77.394573 58.472537 77.76
77.841769 57.244952 77.76
77.476868 55.37855 77.76
76.973644 53.740667 77.76
77.272763 53.77953 77.76
78.772881 54.666991 77.76
80.510492 55.767184 77.76
81.803146 56.744854 77.76
83.013124 57.797611 77.76
84.208219 58.875256 77.76
85.428146 59.9168 77.76
86.665967 60.935388 77.76
87.887513 61.972203 77.76
89.128744 63.011956 77.76
90.386008 64.051444 77.76
91.617334 65.111108 77.76
92.78075 66.211388 77.76
93.834286 67.372725 77.76
94.817928 68.61458 77.76
95.868372 69.937019 77.76
96.876998 71.324975 77.76
97.722402 72.763069 77.76
98.283178 74.235924 77.76
98.444844 75.729577 77.76
98.417077 77.285165 77.76
98.353153 78.900088 77.76
98.259772 80.536151 77.76
98.143637 82.155159 77.76
97.98532 83.751676 77.76
97.684546 85.408193 77.76
97.253809 87.047921 77.76
96.719843 88.575276 77.76
96.109379 89.894675 77.76
95.273311 91.039475 77.76
94.102699 92.108135 77.76
92.709281 93.087622 77.76
91.204885 93.964849 77.76
89.701339 94.726729 77.76
88.273057 95.374614 77.76
86.808043 95.963798 77.76
85.290596 96.487286 77.76
83.725285 96.928798 77.76
82.116678 97.272056 77.76
82.116678 97.272056 77.76
82.243867 97.915517 69.12
80.55303 97.891988 69.12
78.879451 97.828274 69.12
77.227578 97.734683 69.12
75.598026 97.616761 69.12
73.915775 97.372549 69.12
72.192423 96.973688 69.12
70.48418 96.442196 69.12
68.847259 95.800091 69.12
67.337873 95.069394 69.12
66.012233 94.272121 69.12
64.863368 93.361515 69.12
63.691481 92.04978 69.12
62.743471 90.488488 69.12
62.331202 88.896774 69.12
62.334837 87.321712 69.12
62.348673 85.662428 69.12
62.370386 83.959332 69.12
62.398601 82.253195 69.12
62.434512 80.577168 69.12
62.511418 78.869526 69.12
62.639834 77.136728 69.12
62.819637 75.416836 69.12
63.050705 73.747911 69.12
63.332918 72.168015 69.12
63.682953 70.714541 69.12
64.512603 69.387043 69.12
65.751836 68.145749 69.12
67.06743 66.952123 69.12
68.307601 65.801189 69.12
69.731714 64.73977 69.12
71.234296 63.722873 69.12
72.684829 62.700222 69.12
73.952797 61.621546 69.12
74.907684 60.436571 69.12
75.466688 59.076047 69.12
75.882288 57.437323 69.12
76.07374 55.730048 69.12
75.913239 53.706236 69.12
75.652256 51.945823 69.12
75.699713 51.770898 69.12
76.243821 52.156123 69.12
77.208728 52.845225 69.12
78.50536 53.781125 69.12
80.044643 54.906744 69.12
81.737505 56.165002 69.12
83.494872 57.498821 69.12
85.227671 58.851121 69.12
86.846828 60.164824 69.12
88.263272 61.382851 69.12
89.50742 62.504158 69.12
90.789165 63.637057 69.12
92.070445 64.796498 69.12
93.302209 65.992725 69.12
94.435408 67.235982 69.12
95.420993 68.536516 69.12
96.210056 69.904666 69.12
96.868103 71.413913 69.12
97.386388 73.03829 69.12
97.656972 74.667219 69.12
97.8466 76.322884 69.12
98.004308 78.004128 69.12
98.123456 79.68851 69.12
98.197404 81.353585 69.12
98.217477 82.977572 69.12
97.977344 84.6045 69.12
97.423365 86.233203 69.12
96.67008 87.808638 69.12
95.83203 89.275758 69.12
94.986985 90.604669 69.12
93.966975 91.91619 69.12
92.773397 93.186184 69.12
91.454715 94.355949 69.12
90.059397 95.366786 69.12
88.635907 96.159994 69.12
87.183765 96.751689 69.12
85.622902 97.266089 69.12
83.969431 97.668066 69.12
82.243867 97.915517 69.12
82.243867 97.915517 69.12
81.474303 98.963864 60.48
79.688339 99.345587 60.48
77.93349 99.54944 60.48
76.212615 99.631224 60.48
74.528571 99.64674 60.48
72.862453 99.498487 60.48
71.193138 98.972166 60.48
69.556895 98.175258 60.48
67.991359 97.223773 60.48
66.534163 96.233721 60.48
65.20292 95.209297 60.48
63.96756 93.951812 60.48
62.841716 92.572616 60.48
61.736431 91.159296 60.48
61.142971 89.617997 60.48
61.091028 87.950455 60.48
61.055301 86.196136 60.48
61.033377 84.403921 60.48
61.022841 82.62269 60.48
61.033693 80.895604 60.48
61.236776 79.17626 60.48
61.643687 77.457218 60.48
62.197974 75.758059 60.48
62.843183 74.098363 60.48
63.522859 72.497712 60.48
64.232313 70.973233 60.48
65.138756 69.516966 60.48
66.192438 68.108442 60.48
67.314727 66.727329 60.48
68.426989 65.353294 60.48
69.528278 63.992593 60.48
70.727214 62.680709 60.48
71.929797 61.375727 60.48
73.031569 60.031961 60.48
73.928069 58.603723 60.48
74.717651 57.050544 60.48
75.429313 55.398785 60.48
75.817501 53.704841 60.48
75.835233 51.697354 60.48
75.835233 49.71185 60.48
75.925893 49.446162 60.48
76.588062 50.032704 60.48
77.755772 51.069388 60.48
79.266315 52.414528 60.48
80.956983 53.926438 60.48
82.665066 55.46343 60.48
84.227856 56.883818 60.48
85.544422 58.096368 60.48
86.824691 59.278502 60.48
88.090162 60.475009 60.48
89.323608 61.699854 60.48
90.610159 62.933383 60.48
91.959963 64.167924 60.48
93.281688 65.423895 60.48
94.484007 66.721716 60.48
95.475589 68.081804 60.48
96.171796 69.525412 60.48
96.742882 71.090281 60.48
97.271912 72.760889 60.48
97.72196 74.499661 60.48
98.056101 76.269018 60.48
98.23741 78.031386 60.48
98.259328 79.769831 60.48
98.259328 81.532067 60.48
98.253581 83.240241 60.48
97.927626 84.905914 60.48
97.22119 86.545097 60.48
96.301633 88.125933 60.48
95.336319 89.61656 60.48
94.400953 91.046797 60.48
93.345248 92.52328 60.48
92.175883 93.972528 60.48
90.910776 95.311593 60.48
89.567848 96.457523 60.48
88.165017 97.327369 60.48
86.691809 97.910864 60.48
85.066883 98.407897 60.48
83.315653 98.780297 60.48
81.474303 98.963864 60.48
81.474303 98.963864 60.48
82.022404 100.324713 51.84
79.966287 100.519134 51.84
79.966287 100.519134 51.84
78.088338 100.336632 51.84
76.246745 100.051649 51.84
74.413323 99.654136 51.84
72.569121 99.114039 51.84
70.759213 98.451183 51.84
69.028703 97.685417 51.84
67.422693 96.836591 51.84
65.832736 95.819789 51.84
64.240522 94.522594 51.84
63.052214 93.05486 51.84
62.545067 91.490967 51.84
62.20751 89.715238 51.84
61.948772 87.793732 51.84
61.784658 85.827537 51.84
61.73102 83.917436 51.84
61.813783 82.036264 51.84
62.026762 80.134638 51.84
62.342642 78.247485 51.84
62.734112 76.40973 51.84
63.173858 74.656301 51.84
63.859321 73.003412 51.84
64.886012 71.421984 51.84
66.066345 69.879223 51.84
67.212727 68.342337 51.84
68.301518 66.816565 51.84
69.439299 65.320829 51.84
70.582661 63.829549 51.84
71.687685 62.317016 51.84
72.716967 60.757738 51.84
73.88554 59.146238 51.84
74.867544 57.492925 51.84
75.081254 55.799219 51.84
74.673041 54.023867 51.84
73.93419 52.219449 51.84
73.051399 50.465655 51.84
72.073206 48.730742 51.84
70.664851 46.8369 51.84
70.175926 46.214963 51.84
70.982491 46.740056 51.84
72.566447 47.796331 51.84
74.538296 49.161093 51.84
76.508541 50.611648 51.84
78.095039 51.931234 51.84
79.394079 53.251212 51.84
80.612961 54.6811 51.84
81.787418 56.171967 51.84
82.95318 57.674878 51.84
84.145981 59.140902 51.84
85.401551 60.521106 51.84
86.769794 61.764698 51.84
88.382484 62.846327 51.84
90.105197 63.849924 51.84
91.738477 64.876302 51.84
93.08287 66.026269 51.84
94.055675 67.398861 51.84
94.977652 69.011799 51.84
95.810991 70.79295 51.84
96.471254 72.666345 51.84
96.874002 74.556018 51.84
96.956605 76.396299 51.84
96.940836 78.257264 51.84
96.909361 80.146305 51.84
96.865831 82.033853 51.84
96.791604 83.926224 51.84
96.63552 85.861457 51.84
96.402532 87.767319 51.84
96.100476 89.566461 51.84
95.661766 91.229002 51.84
94.774825 92.901438 51.84
93.533059 94.507793 51.84
92.08616 95.938617 51.84
90.583818 97.084465 51.84
89.115448 97.917008 51.84
87.529284 98.679899 51.84
85.812594 99.363326 51.84
83.97407 99.925521 51.84
82.022404 100.324713 51.84
82.636795 98.355774 43.2
80.944272 98.596576 43.2
80.944272 98.596576 43.2
79.265403 98.580451 43.2
77.618613 98.53543 43.2
76.009712 98.466551 43.2
74.443382 98.375475 43.2
72.865476 98.074111 43.2
71.279074 97.502889 43.2
69.733706 96.733129 43.2
68.2789 95.836149 43.2
66.964184 94.883267 43.2
65.809462 93.906991 43.2
64.678348 92.714374 43.2
63.632932 91.338062 43.2
62.777194 89.862813 43.2
62.215113 88.373388 43.2
61.862673 86.854605 43.2
61.553962 85.247907 43.2
61.311337 83.594919 43.2
61.157423 81.937408 43.2
61.115659 80.315677 43.2
61.237697 78.692418 43.2
61.517739 77.053856 43.2
61.919148 75.427245 43.2
62.405289 73.839843 43.2
62.939527 72.318904 43.2
63.520031 70.885941 43.2
64.333312 69.51679 43.2
65.33971 68.200356 43.2
66.450797 66.931642 43.2
67.578144 65.705653 43.2
68.736544 64.540035 43.2
70.122096 63.47461 43.2
71.578375 62.452384 43.2
72.922866 61.409968 43.2
73.973053 60.283974 43.2
74.556591 58.987547 43.2
74.827922 57.078349 43.2
75.010379 54.975227 43.2
75.249533 53.430643 43.2
75.764226 53.151353 43.2
77.221258 53.879925 43.2
78.925561 54.792664 43.2
80.392405 55.506916 43.2
81.843037 56.244583 43.2
83.264737 57.043241 43.2
84.684048 57.873492 43.2
86.079957 58.743001 43.2
87.431023 59.659836 43.2
88.715806 60.632069 43.2
89.967336 61.670518 43.2
91.254826 62.7839 43.2
92.48258 63.968938 43.2
93.548173 65.221939 43.2
94.349176 66.539209 43.2
94.920893 67.946898 43.2
95.43845 69.471246 43.2
95.888588 71.075886 43.2
96.254913 72.72361 43.2
96.521028 74.377212 43.2
96.672125 76.000919 43.2
96.771318 77.630258 43.2
96.85456 79.278976 43.2
96.916548 80.924048 43.2
96.951976 82.542452 43.2
96.925468 84.119367 43.2
96.580009 85.70395 43.2
95.949292 87.272838 43.2
95.147228 88.781472 43.2
94.287728 90.185292 43.2
93.426167 91.477827 43.2
92.400597 92.767317 43.2
91.226428 94.012098 43.2
89.944102 95.1525 43.2
88.594058 96.128857 43.2
87.216738 96.881498 43.2
85.791105 97.458713 43.2
84.258521 97.963151 43.2
82.636795 98.355774 43.2
81.729393 96.165045 34.56
80.210121 96.297668 34.56
80.210121 96.297668 34.56
78.727319 96.259882 34.56
77.271944 96.158409 34.56
75.853406 96.011072 34.56
74.480952 95.835412 34.56
73.106248 95.543521 34.56
71.707664 95.074611 34.56
70.317301 94.456963 34.56
68.96726 93.718855 34.56
67.689642 92.888568 34.56
66.516547 91.994381 34.56
65.480074 91.064574 34.56
64.59747 90.094677 34.56
63.797502 88.881604 34.56
63.148353 87.523097 34.56
62.726182 86.171288 34.56
62.376076 84.787204 34.56
62.073896 83.362019 34.56
61.848357 81.917427 34.56
61.728176 80.47512 34.56
61.734525 79.039438 34.56
61.842968 77.568098 34.56
62.030838 76.099649 34.56
62.277833 74.682032 34.56
62.566838 73.362387 34.56
63.092545 72.120275 34.56
63.904378 70.927279 34.56
64.896905 69.785417 34.56
65.964696 68.696706 34.56
67.002321 67.663166 34.56
68.022779 66.681342 34.56
69.111072 65.743323 34.56
70.249518 64.845329 34.56
71.420326 63.983586 34.56
72.605703 63.154317 34.56
73.795918 62.354709 34.56
75.01921 61.593041 34.56
76.27268 60.883456 34.56
77.556428 60.235893 34.56
78.882127 59.677274 34.56
80.239254 59.160004 34.56
81.62519 58.825246 34.56
83.061686 58.630694 34.56
84.503713 58.512648 34.56
85.91167 58.626416 34.56
87.30353 59.223044 34.56
88.448674 59.962166 34.56
89.433045 60.873076 34.56
90.341431 61.996958 34.56
91.16828 63.265799 34.56
91.908038 64.611588 34.56
92.555153 65.966313 34.56
93.112724 67.272897 34.56
93.660155 68.609515 34.56
94.163441 69.99142 34.56
94.553559 71.398719 34.56
94.761486 72.81152 34.56
94.810755 74.225544 34.56
94.848537 75.658025 34.56
94.878852 77.102577 34.56
94.901651 78.552135 34.56
94.916886 79.999632 34.56
94.924506 81.438002 34.56
94.897929 82.87388 34.56
94.704278 84.351422 34.56
94.376618 85.802377 34.56
93.975937 87.142206 34.56
93.492599 88.35407 34.56
92.774245 89.573227 34.56
91.854551 90.772677 34.56
90.780273 91.913364 34.56
89.598168 92.956233 34.56
88.354994 93.862228 34.56
87.097507 94.592296 34.56
85.868771 95.111745 34.56
84.580558 95.534422 34.56
83.193486 95.898076 34.56
81.729393 96.165045 34.56
3 0 80 81
3 0 81 1
3 1 81 82
3 1 82 2
3 2 82 83
3 2 83 3
3 3 83 84
3 3 84 4
3 4 84 85
3 4 85 5
3 5 85 86
3 5 86 6
3 6 86 87
3 6 87 7
3 7 87 88
3 7 88 8
3 8 88 89
3 8 89 9
3 9 89 90
3 9 90 10
3 10 90 91
3 10 91 11
3 11 91 92
3 11 92 12
3 12 92 93
3 12 93 13
3 13 93 94
3 13 94 14
3 14 94 95
3 14 95 15
3 15 95 96
3 15 96 16
3 16 96 97
3 16 97 17
3 17 97 98
3 17 98 18
3 18 98 99
3 18 99 19
3 19 99 100
3 19 100 20
3 20 100 101
3 20 101 21
3 21 101 102
3 21 102 22
3 22 102 103
3 22 103 23
3 23 103 104
3 23 104 24
3 24 104 105
3 24 105 25
3 25 105 106
3 25 106 26
3 26 106 107
3 26 107 27
3 27 107 108
3 27 108 28
3 28 108 109
3 28 109 29
3 29 109 110
3 29 110 30
3 30 110 111
3 30 111 31
3 31 111 112
3 31 112 32
3 32 112 113
3 32 113 33
3 33 113 114
3 33 114 34
3 34 114 115
3 34 115 35
3 35 115 116
3 35 116 36
3 36 116 117
3 36 117 37
3 37 117 118
3 37 118 38
3 38 118 119
3 38 119 39
3 39 119 120
3 39 120 40
3 40 120 121
3 40 121 41
3 41 121 122
3 41 122 42
3 42 122 123
3 42 123 43
3 43 123 124
3 43 124 44
3 44 124 125
3 44 125 45
3 45 125 126
3 45 126 46
3 46 126 127
3 46 127 47
3 47 127 128
3 47 128 48
3 48 128 129
3 48 129 49
3 49 129 130
3 49 130 50
3 50 130 131
3 50 131 51
3 51 131 132
3 51 132 52
3 52 132 133
3 52 133 53
3 53 133 134
3 53 134 54
3 54 134 135
3 54 135 55
3 55 135 136
3 55 136 56
3 56 136 137
3 56 137 57
3 57 137 138
3 57 138 58
3 58 138 139
3 58 139 59
3 59 139 140
3 59 140 60
3 60 140 141
3 60 141 61
3 61 141 142
3 61 142 62
3 62 142 143
3 62 143 63
3 63 143 144
3 63 144 64
3 64 144 145
3 64 145 65
3 65 145 146
3 65 146 66
3 66 146 147
3 66 147 67
3 67 147 148
3 67 148 68
3 68 148 149
3 68 149 69
3 69 149 150
3 69 150 70
3 70 150 151
3 70 151 71
3 71 151 152
3 71 152 72
3 72 152 153
3 72 153 73
3 73 153 154
3 73 154 74
3 74 154 155
3 74 155 75
3 75 155 156
3 75 156 76
3 76 156 157
3 76 157 77
3 77 157 158
3 77 158 78
3 78 158 159
3 78 159 79
3 79 159 80
3 79 80 0
3 80 160 161
3 80 161 81
3 81 161 162
3 81 162 82
3 82 162 163
3 82 163 83
3 83 163 164
3 83 164 84
3 84 164 165
3 84 165 85
3 85 165 166
3 85 166 86
3 86 166 167
3 86 167 87
3 87 167 168
3 87 168 88
3 88 168 169
3 88 169 89
3 89 169 170
3 89 170 90
3 90 170 171
3 90 171 91
3 91 171 172
3 91 172 92
3 92 172 173
3 92 173 93
3 93 173 174
3 93 174 94
3 94 174 175
3 94 175 95
3 95 175 176
3 95 176 96
3 96 176 177
3 96 177 97
3 97 177 178
3 97 178 98
3 98 178 179
3 98 179 99
3 99 179 180
3 99 180 100
3 100 180 181
3 100 181 101
3 101 181 182
3 101 182 102
3 102 182 183
3 102 183 103
3 103 183 184
3 103 184 104
3 104 184 185
3 104 185 105
3 105 185 186
3 105 186 106
3 106 186 187
3 106 187 107
3 107 187 188
3 107 188 108
3 108 188 189
3 108 189 109
3 109 189 190
3 109 190 110
3 110 190 191
3 110 191 111
3 111 191 192
3 111 192 112
3 112 192 193
3 112 193 113
3 113 193 194
3 113 194 114
3 114 194 195
3 114 195 115
3 115 195 196
3 115 196 116
3 116 196 197
3 116 197 117
3 117 197 198
3 117 198 118
3 118 198 199
3 118 199 119
3 119 199 200
3 119 200 120
3 120 200 201
3 120 201 121
3 121 201 202
3 121 202 122
3 122 202 203
3 122 203 123
3 123 203 204
3 123 204 124
3 124 204 205
3 124 205 125
3 125 205 206
3 125 206 126
3 126 206 207
3 126 207 127
3 127 207 208
3 127 208 128
3 128 208 209
3 128 209 129
3 129 209 210
3 129 210 130
3 130 210 211
3 130 211 131
3 131 211 212
3 131 212 132
3 132 212 213
3 132 213 133
3 133 213 214
3 133 214 134
3 134 214 215
3 134 215 135
3 135 215 216
3 135 216 136
3 136 216 217
3 136 217 137
3 137 217 218
3 137 218 138
3 138 218 219
3 138 219 139
3 139 219 220
3 139 220 140
3 140 220 221
3 140 221 141
3 141 221 222
3 141 222 142
3 142 222 223
3 142 223 143
3 143 223 224
3 143 224 144
3 144 224 225
3 144 225 145
3 145 225 226
3 145 226 146
3 146 226 227
3 146 227 147
3 147 227 228
3 147 228 148
3 148 228 229
3 148 229 149
3 149 229 230
3 149 230 150
3 150 230 231
3 150 231 151
3 151 231 232
3 151 232 152
3 152 232 233
3 152 233 153
3 153 233 234
3 153 234 154
3 154 234 235
3 154 235 155
3 155 235 236
3 155 236 156
3 156 236 237
3 156 237 157
3 157 237 238
3 157 238 158
3 158 238 239
3 158 239 159
3 159 239 160
3 159 160 80
3 160 240 241
3 160 241 161
3 161 241 242
3 161 242 162
3 162 242 243
3 162 243 163
3 163 243 244
3 163 244 164
3 164 244 245
3 164 245 165
3 165 245 246
3 165 246 166
3 166 246 247
3 166 247 167
3 167 247 248
3 167 248 168
3 168 248 249
3 168 249 169
3 169 249 250
3 169 250 170
3 170 250 251
3 170 251 171
3 171 251 252
3 171 252 172
3 172 252 253
3 172 253 173
3 173 253 254
3 173 254 174
3 174 254 255
3 174 255 175
3 175 255 256
3 175 256 176
3 176 256 257
3 176 257 177
3 177 257 258
3 177 258 178
3 178 258 259
3 178 259 179
3 179 259 260
3 179 260 180
3 180 260 261
3 180 261 181
3 181 261 262
3 181 262 182
3 182 262 263
3 182 263 183
3 183 263 264
3 183 264 184
3 184 264 265
3 184 265 185
3 185 265 266
3 185 266 186
3 186 266 267
3 186 267 187
3 187 267 268
3 187 268 188
3 188 268 269
3 188 269 189
3 189 269 270
3 189 270 190
3 190 270 271
3 190 271 191
3 191 271 272
3 191 272 192
3 192 272 273
3 192 273 193
3 193 273 274
3 193 274 194
3 194 274 275
3 194 275 195
3 195 275 276
3 195 276 196
3 196 276 277
3 196 277 197
3 197 277 278
3 197 278 198
3 198 278 279
3 198 279 199
3 199 279 280
3 199 280 200
3 200 280 281
3 200 281 201
3 201 281 282
3 201 282 202
3 202 282 283
3 202 283 203
3 203 283 284
3 203 284 204
3 204 284 285
3 204 285 205
3 205 285 286
3 205 286 206
3 206 286 287
3 206 287 207
3 207 287 288
3 207 288 208
3 208 288 289
3 208 289 209
3 209 289 290
3 209 290 210
3 210 290 291
3 210 291 211
3 211 291 292
3 211 292 212
3 212 292 293
3 212 293 213
3 213 293 294
3 213 294 214
3 214 294 295
3 214 295 215
3 215 295 296
3 215 296 216
3 216 296 297
3 216 297 217
3 217 297 298
3 217 298 218
3 218 298 299
3 218 299 219
3 219 299 300
3 219 300 220
3 220 300 301
3 220 301 221
3 221 301 302
3 221 302 222
3 222 302 303
3 222 303 223
3 223 303 304
3 223 304 224
3 224 304 305
3 224 305 225
3 225 305 306
3 225 306 226
3 226 306 307
3 226 307 227
3 227 307 308
3 227 308 228
3 228 308 309
3 228 309 229
3 229 309 310
3 229 310 230
3 230 310 311
3 230 311 231
3 231 311 312
3 231 312 232
3 232 312 313
3 232 313 233
3 233 313 314
3 233 314 234
3 234 314 315
3 234 315 235
3 235 315 316
3 235 316 236
3 236 316 317
3 236 317 237
3 237 317 318
3 237 318 238
3 238 318 319
3 238 319 239
3 239 319 240
3 239 240 160
3 240 320 321
3 240 321 241
3 241 321 322
3 241 322 242
3 242 322 323
3 242 323 243
3 243 323 324
3 243 324 244
3 244 324 325
3 244 325 245
3 245 325 326
3 245 326 246
3 246 326 327
3 246 327 247
3 247 327 328
3 247 328 248
3 248 328 329
3 248 329 249
3 249 329 330
3 249 330 250
3 250 330 331
3 250 331 251
3 251 331 332
3 251 332 252
3 252 332 333
3 252 333 253
3 253 333 334
3 253 334 254
3 254 334 335
3 254 335 255
3 255 335 336
3 255 336 256
3 256 336 337
3 256 337 257
3 257 337 338
3 257 338 258
3 258 338 339
3 258 339 259
3 259 339 340
3 259 340 260
3 260 340 341
3 260 341 261
3 261 341 342
3 261 342 262
3 262 342 343
3 262 343 263
3 263 343 344
3 263 344 264
3 264 344 345
3 264 345 265
3 265 345 346
3 265 346 266
3 266 346 347
3 266 347 267
3 267 347 348
3 267 348 268
3 268 348 349
3 268 349 269
3 269 349 350
3 269 350 270
3 270 350 351
3 270 351 271
3 271 351 352
3 271 352 272
3 272 352 353
3 272 353 273
3 273 353 354
3 273 354 274
3 274 354 355
3 274 355 275
3 275 355 356
3 275 356 276
3 276 356 357
3 276 357 277
3 277 357 358
3 277 358 278
3 278 358 359
3 278 359 279
3 279 359 360
3 279 360 280
3 280 360 361
3 280 361 281
3 281 361 362
3 281 362 282
3 282 362 363
3 282 363 283
3 283 363 364
3 283 364 284
3 284 364 365
3 284 365 285
3 285 365 366
3 285 366 286
3 286 366 367
3 286 367 287
3 287 367 368
3 287 368 288
3 288 368 369
3 288 369 289
3 289 369 370
3 289 370 290
3 290 370 371
3 290 371 291
3 291 371 372
3 291 372 292
3 292 372 373
3 292 373 293
3 293 373 374
3 293 374 294
3 294 374 375
3 294 375 295
3 295 375 376
3 295 376 296
3 296 376 377
3 296 377 297
3 297 377 378
3 297 378 298
3 298 378 379
3 298 379 299
3 299 379 380
3 299 380 300
3 300 380 381
3 300 381 301
3 301 381 382
3 301 382 302
3 302 382 383
3 302 383 303
3 303 383 384
3 303 384 304
3 304 384 385
3 304 385 305
3 305 385 386
3 305 386 306
3 306 386 387
3 306 387 307
3 307 387 388
3 307 388 308
3 308 388 389
3 308 389 309
3 309 389 390
3 309 390 310
3 310 390 391
3 310 391 311
3 311 391 392
3 311 392 312
3 312 392 393
3 312 393 313
3 313 393 394
3 313 394 314
3 314 394 395
3 314 395 315
3 315 395 396
3 315 396 316
3 316 396 397
3 316 397 317
3 317 397 398
3 317 398 318
3 318 398 399
3 318 399 319
3 319 399 320
3 319 320 240
3 320 400 401
3 320 401 321
3 321 401 402
3 321 402 322
3 322 402 403
3 322 403 323
3 323 403 404
3 323 404 324
3 324 404 405
3 324 405 325
3 325 405 406
3 325 406 326
3 326 406 407
3 326 407 327
3 327 407 408
3 327 408 328
3 328 408 409
3 328 409 329
3 329 409 410
3 329 410 330
3 330 410 411
3 330 411 331
3 331 411 412
3 331 412 332
3 332 412 413
3 332 413 333
3 333 413 414
3 333 414 334
3 334 414 415
3 334 415 335
3 335 415 416
3 335 416 336
3 336 416 417
3 336 417 337
3 337 417 418
3 337 418 338
3 338 418 419
3 338 419 339
3 339 419 420
3 339 420 340
3 340 420 421
3 340 421 341
3 341 421 422
3 341 422 342
3 342 422 423
3 342 423 343
3 343 423 424
3 343 424 344
3 344 424 425
3 344 425 345
3 345 425 426
3 345 426 346
3 346 426 427
3 346 427 347
3 347 427 428
3 347 428 348
3 348 428 429
3 348 429 349
3 349 429 430
3 349 430 350
3 350 430 431
3 350 431 351
3 351 431 432
3 351 432 352
3 352 432 433
3 352 433 353
3 353 433 434
3 353 434 354
3 354 434 435
3 354 435 355
3 355 435 436
3 355 436 356
3 356 436 437
3 356 437 357
3 357 437 438
3 357 438 358
3 358 438 439
3 358 439 359
3 359 439 440
3 359 440 360
3 360 440 441
3 360 441 361
3 361 441 442
3 361 442 362
3 362 442 443
3 362 443 363
3 363 443 444
3 363 444 364
3 364 444 445
3 364 445 365
3 365 445 446
3 365 446 366
3 366 446 447
3 366 447 367
3 367 447 448
3 367 448 368
3 368 448 449
3 368 449 369
3 369 449 450
3 369 450 370
3 370 450 451
3 370 451 371
3 371 451 452
3 371 452 372
3 372 452 453
3 372 453 373
3 373 453 454
3 373 454 374
3 374 454 455
3 374 455 375
3 375 455 456
3 375 456 376
3 376 456 457
3 376 457 377
3 377 457 458
3 377 458 378
3 378 458 459
3 378 459 379
3 379 459 460
3 379 460 380
3 380 460 461
3 380 461 381
3 381 461 462
3 381 462 382
3 382 462 463
3 382 463 383
3 383 463 464
3 383 464 384
3 384 464 465
3 384 465 385
3 385 465 466
3 385 466 386
3 386 466 467
3 386 467 387
3 387 467 468
3 387 468 388
3 388 468 469
3 388 469 389
3 389 469 470
3 389 470 390
3 390 470 471
3 390 471 391
3 391 471 472
3 391 472 392
3 392 472 473
3 392 473 393
3 393 473 474
3 393 474 394
3 394 474 475
3 394 475 395
3 395 475 476
3 395 476 396
3 396 476 477
3 396 477 397
3 397 477 478
3 397 478 398
3 398 478 479
3 398 479 399
3 399 479 400
3 399 400 320
3 400 480 481
3 400 481 401
3 401 481 482
3 401 482 402
3 402 482 483
3 402 483 403
3 403 483 484
3 403 484 404
3 404 484 485
3 404 485 405
3 405 485 486
3 405 486 406
3 406 486 487
3 406 487 407
3 407 487 488
3 407 488 408
3 408 488 489
3 408 489 409
3 409 489 490
3 409 490 410
3 410 490 491
3 410 491 411
3 411 491 492
3 411 492 412
3 412 492 493
3 412 493 413
3 413 493 494
3 413 494 414
3 414 494 495
3 414 495 415
3 415 495 496
3 415 496 416
3 416 496 497
3 416 497 417
3 417 497 498
3 417 498 418
3 418 498 499
3 418 499 419
3 419 499 500
3 419 500 420
3 420 500 501
3 420 501 421
3 421 501 502
3 421 502 422
3 422 502 503
3 422 503 423
3 423 503 504
3 423 504 424
3 424 504 505
3 424 505 425
3 425 505 506
3 425 506 426
3 426 506 507
3 426 507 427
3 427 507 508
3 427 508 428
3 428 508 509
3 428 509 429
3 429 509 510
3 429 510 430
3 430 510 511
3 430 511 431
3 431 511 512
3 431 512 432
3 432 512 513
3 432 513 433
3 433 513 514
3 433 514 434
3 434 514 515
3 434 515 435
3 435 515 516
3 435 516 436
3 436 516 517
3 436 517 437
3 437 517 518
3 437 518 438
3 438 518 519
3 438 519 439
3 439 519 520
3 439 520 440
3 440 520 521
3 440 521 441
3 441 521 522
3 441 522 442
3 442 522 523
3 442 523 443
3 443 523 524
3 443 524 444
3 444 524 525
3 444 525 445
3 445 525 526
3 445 526 446
3 446 526 527
3 446 527 447
3 447 527 528
3 447 528 448
3 448 528 529
3 448 529 449
3 449 529 530
3 449 530 450
3 450 530 531
3 450 531 451
3 451 531 532
3 451 532 452
3 452 532 533
3 452 533 453
3 453 533 534
3 453 534 454
3 454 534 535
3 454 535 455
3 455 535 536
3 455 536 456
3 456 536 537
3 456 537 457
3 457 537 538
3 457 538 458
3 458 538 539
3 458 539 459
3 459 539 540
3 459 540 460
3 460 540 541
3 460 541 461
3 461 541 542
3 461 542 462
3 462 542 543
3 462 543 463
3 463 543 544
3 463 544 464
3 464 544 545
3 464 545 465
3 465 545 546
3 465 546 466
3 466 546 547
3 466 547 467
3 467 547 548
3 467 548 468
3 468 548 549
3 468 549 469
3 469 549 550
3 469 550 470
3 470 550 551
3 470 551 471
3 471 551 552
3 471 552 472
3 472 552 553
3 472 553 473
3 473 553 554
3 473 554 474
3 474 554 555
3 474 555 475
3 475 555 556
3 475 556 476
3 476 556 557
3 476 557 477
3 477 557 558
3 477 558 478
3 478 558 559
3 478 559 479
3 479 559 480
3 479 480 400
3 480 560 561
3 480 561 481
3 481 561 562
3 481 562 482
3 482 562 563
3 482 563 483
3 483 563 564
3 483 564 484
3 484 564 565
3 484 565 485
3 485 565 566
3 485 566 486
3 486 566 567
3 486 567 487
3 487 567 568
3 487 568 488
3 488 568 569
3 488 569 489
3 489 569 570
3 489 570 490
3 490 570 571
3 490 571 491
3 491 571 572
3 491 572 492
3 492 572 573
3 492 573 493
3 493 573 574
3 493 574 494
3 494 574 575
3 494 575 495
3 495 575 576
3 495 576 496
3 496 576 577
3 496 577 497
3 497 577 578
3 497 578 498
3 498 578 579
3 498 579 499
3 499 579 580
3 499 580 500
3 500 580 581
3 500 581 501
3 501 581 582
3 501 582 502
3 502 582 583
3 502 583 503
3 503 583 584
3 503 584 504
3 504 584 585
3 504 585 505
3 505 585 586
3 505 586 506
3 506 586 587
3 506 587 507
3 507 587 588
3 507 588 508
3 508 588 589
3 508 589 509
3 509 589 590
3 509 590 510
3 510 590 591
3 510 591 511
3 511 591 592
3 511 592 512
3 512 592 593
3 512 593 513
3 513 593 594
3 513 594 514
3 514 594 595
3 514 595 515
3 515 595 596
3 515 596 516
3 516 596 597
3 516 597 517
3 517 597 598
3 517 598 518
3 518 598 599
3 518 599 519
3 519 599 600
3 519 600 520
3 520 600 601
3 520 601 521
3 521 601 602
3 521 602 522
3 522 602 603
3 522 603 523
3 523 603 604
3 523 604 524
3 524 604 605
3 524 605 525
3 525 605 606
3 525 606 526
3 526 606 607
3 526 607 527
3 527 607 608
3 527 608 528
3 528 608 609
3 528 609 529
3 529 609 610
3 529 610 530
3 530 610 611
3 530 611 531
3 531 611 612
3 531 612 532
3 532 612 613
3 532 613 533
3 533 613 614
3 533 614 534
3 534 614 615
3 534 615 535
3 535 615 616
3 535 616 536
3 536 616 617
3 536 617 537
3 537 617 618
3 537 618 538
3 538 618 619
3 538 619 539
3 539 619 620
3 539 620 540
3 540 620 621
3 540 621 541
3 541 621 622
3 541 622 542
3 542 622 623
3 542 623 543
3 543 623 624
3 543 624 544
3 544 624 625
3 544 625 545
3 545 625 626
3 545 626 546
3 546 626 627
3 546 627 547
3 547 627 628
3 547 628 548
3 548 628 629
3 548 629 549
3 549 629 630
3 549 630 550
3 550 630 631
3 550 631 551
3 551 631 632
3 551 632 552
3 552 632 633
3 552 633 553
3 553 633 634
3 553 634 554
3 554 634 635
3 554 635 555
3 555 635 636
3 555 636 556
3 556 636 637
3 556 637 557
3 557 637 638
3 557 638 558
3 558 638 639
3 558 639 559
3 559 639 560
3 559 560 480
3 560 640 641
3 560 641 561
3 561 641 642
3 561 642 562
3 562 642 643
3 562 643 563
3 563 643 644
3 563 644 564
3 564 644 645
3 564 645 565
3 565 645 646
3 565 646 566
3 566 646 647
3 566 647 567
3 567 647 648
3 567 648 568
3 568 648 649
3 568 649 569
3 569 649 650
3 569 650 570
3 570 650 651
3 570 651 571
3 571 651 652
3 571 652 572
3 572 652 653
3 572 653 573
3 573 653 654
3 573 654 574
3 574 654 655
3 574 655 575
3 575 655 656
3 575 656 576
3 576 656 657
3 576 657 577
3 577 657 658
3 577 658 578
3 578 658 659
3 578 659 579
3 579 659 660
3 579 660 580
3 580 660 661
3 580 661 581
3 581 661 662
3 581 662 582
3 582 662 663
3 582 663 583
3 583 663 664
3 583 664 584
3 584 664 665
3 584 665 585
3 585 665 666
3 585 666 586
3 586 666 667
3 586 667 587
3 587 667 668
3 587 668 588
3 588 668 669
3 588 669 589
3 589 669 670
3 589 670 590
3 590 670 671
3 590 671 591
3 591 671 672
3 591 672 592
3 592 672 673
3 592 673 593
3 593 673 674
3 593 674 594
3 594 674 675
3 594 675 595
3 595 675 676
3 595 676 596
3 596 676 677
3 596 677 597
3 597 677 678
3 597 678 598
3 598 678 679
3 598 679 599
3 599 679 680
3 599 680 600
3 600 680 681
3 600 681 601
3 601 681 682
3 601 682 602
3 602 682 683
3 602 683 603
3 603 683 684
3 603 684 604
3 604 684 685
3 604 685 605
3 605 685 686
3 605 686 606
3 606 686 687
3 606 687 607
3 607 687 688
3 607 688 608
3 608 688 689
3 608 689 609
3 609 689 690
3 609 690 610
3 610 690 691
3 610 691 611
3 611 691 692
3 611 692 612
3 612 692 693
3 612 693 613
3 613 693 694
3 613 694 614
3 614 694 695
3 614 695 615
3 615 695 696
3 615 696 616
3 616 696 697
3 616 697 617
3 617 697 698
3 617 698 618
3 618 698 699
3 618 699 619
3 619 699 700
3 619 700 620
3 620 700 701
3 620 701 621
3 621 701 702
3 621 702 622
3 622 702 703
3 622 703 623
3 623 703 704
3 623 704 624
3 624 704 705
3 624 705 625
3 625 705 706
3 625 706 626
3 626 706 707
3 626 707 627
3 627 707 708
3 627 708 628
3 628 708 709
3 628 709 629
3 629 709 710
3 629 710 630
3 630 710 711
3 630 711 631
3 631 711 712
3 631 712 632
3 632 712 713
3 632 713 633
3 633 713 714
3 633 714 634
3 634 714 715
3 634 715 635
3 635 715 716
3 635 716 636
3 636 716 717
3 636 717 637
3 637 717 718
3 637 718 638
3 638 718 719
3 638 719 639
3 639 719 640
3 639 640 560
3 640 720 721
3 640 721 641
3 641 721 722
3 641 722 642
3 642 722 723
3 642 723 643
3 643 723 724
3 643 724 644
3 644 724 725
3 644 725 645
3 645 725 726
3 645 726 646
3 646 726 727
3 646 727 647
3 647 727 728
3 647 728 648
3 648 728 729
3 648 729 649
3 649 729 730
3 649 730 650
3 650 730 731
3 650 731 651
3 651 731 732
3 651 732 652
3 652 732 733
3 652 733 653
3 653 733 734
3 653 734 654
3 654 734 735
3 654 735 655
3 655 735 736
3 655 736 656
3 656 736 737
3 656 737 657
3 657 737 738
3 657 738 658
3 658 738 739
3 658 739 659
3 659 739 740
3 659 740 660
3 660 740 741
3 660 741 661
3 661 741 742
3 661 742 662
3 662 742 743
3 662 743 663
3 663 743 744
3 663 744 664
3 664 744 745
3 664 745 665
3 665 745 746
3 665 746 666
3 666 746 747
3 666 747 667
3 667 747 748
3 667 748 668
3 668 748 749
3 668 749 669
3 669 749 750
3 669 750 670
3 670 750 751
3 670 751 671
3 671 751 752
3 671 752 672
3 672 752 753
3 672 753 673
3 673 753 754
3 673 754 674
3 674 754 755
3 674 755 675
3 675 755 756
3 675 756 676
3 676 756 757
3 676 757 677
3 677 757 758
3 677 758 678
3 678 758 759
3 678 759 679
3 679 759 760
3 679 760 680
3 680 760 761
3 680 761 681
3 681 761 762
3 681 762 682
3 682 762 763
3 682 763 683
3 683 763 764
3 683 764 684
3 684 764 765
3 684 765 685
3 685 765 766
3 685 766 686
3 686 766 767
3 686 767 687
3 687 767 768
3 687 768 688
3 688 768 769
3 688 769 689
3 689 769 770
3 689 770 690
3 690 770 771
3 690 771 691
3 691 771 772
3 691 772 692
3 692 772 773
3 692 773 693
3 693 773 774
3 693 774 694
3 694 774 775
3 694 775 695
3 695 775 776
3 695 776 696
3 696 776 777
3 696 777 697
3 697 777 778
3 697 778 698
3 698 778 779
3 698 779 699
3 699 779 780
3 699 780 700
3 700 780 781
3 700 781 701
3 701 781 782
3 701 782 702
3 702 782 783
3 702 783 703
3 703 783 784
3 703 784 704
3 704 784 785
3 704 785 705
3 705 785 786
3 705 786 706
3 706 786 787
3 706 787 707
3 707 787 788
3 707 788 708
3 708 788 789
3 708 789 709
3 709 789 790
3 709 790 710
3 710 790 791
3 710 791 711
3 711 791 792
3 711 792 712
3 712 792 793
3 712 793 713
3 713 793 794
3 713 794 714
3 714 794 795
3 714 795 715
3 715 795 796
3 715 796 716
3 716 796 797
3 716 797 717
3 717 797 798
3 717 798 718
3 718 798 799
3 718 799 719
3 719 799 720
3 719 720 640
